STARTFONT 2.1
FONT -FontForge-Zen Tokyo Zoo-Book-R-Normal--28-280-72-72-P-131-ISO10646-1
SIZE 28 72 72
FONTBOUNDINGBOX 36 38 -3 -7
COMMENT "Generated by fontforge, http://fontforge.sourceforge.net"
COMMENT "Copyright 2021 The Zen Tokyo Zoo Project Authors (https://github.com/googlefonts/zen-tokyo-zoo)"
STARTPROPERTIES 39
FOUNDRY "FontForge"
FAMILY_NAME "Zen Tokyo Zoo"
WEIGHT_NAME "Book"
SLANT "R"
SETWIDTH_NAME "Normal"
ADD_STYLE_NAME ""
PIXEL_SIZE 28
POINT_SIZE 280
RESOLUTION_X 72
RESOLUTION_Y 72
SPACING "P"
AVERAGE_WIDTH 131
CHARSET_REGISTRY "ISO10646"
CHARSET_ENCODING "1"
FONTNAME_REGISTRY ""
CHARSET_COLLECTIONS "ISO10646-1"
FONT_NAME "ZenTokyoZoo-Regular"
FACE_NAME "Zen Tokyo Zoo Regular"
COPYRIGHT "Copyright 2021 The Zen Tokyo Zoo Project Authors (https://github.com/googlefonts/zen-tokyo-zoo)"
FONT_VERSION "1.002; ttfautohint (v1.8.3)"
FONT_ASCENT 22
FONT_DESCENT 6
UNDERLINE_POSITION -4
UNDERLINE_THICKNESS 1
X_HEIGHT 11
CAP_HEIGHT 22
RAW_ASCENT 800
RAW_DESCENT 200
NORM_SPACE 8
RELATIVE_WEIGHT 40
RELATIVE_SETWIDTH 50
SUPERSCRIPT_X 0
SUPERSCRIPT_Y 9
SUPERSCRIPT_SIZE 16
SUBSCRIPT_X 0
SUBSCRIPT_Y 2
SUBSCRIPT_SIZE 16
AVG_LOWERCASE_WIDTH 116
AVG_UPPERCASE_WIDTH 211
ENDPROPERTIES
CHARS 338
STARTCHAR CR
ENCODING 13
SWIDTH 600 0
DWIDTH 17 0
BBX 1 1 0 0
BITMAP
00
ENDCHAR
STARTCHAR space
ENCODING 32
SWIDTH 280 0
DWIDTH 8 0
BBX 1 1 0 0
BITMAP
00
ENDCHAR
STARTCHAR exclam
ENCODING 33
SWIDTH 196 0
DWIDTH 5 0
BBX 3 12 1 0
BITMAP
A0
A0
A0
A0
A0
A0
A0
A0
A0
00
A0
A0
ENDCHAR
STARTCHAR quotedbl
ENCODING 34
SWIDTH 302 0
DWIDTH 8 0
BBX 7 4 1 8
BITMAP
CA
CA
CA
CA
ENDCHAR
STARTCHAR numbersign
ENCODING 35
SWIDTH 513 0
DWIDTH 14 0
BBX 12 12 1 0
BITMAP
14A0
1400
57F0
1400
5BF0
0140
FD60
0140
FDA0
0280
2A80
3280
ENDCHAR
STARTCHAR dollar
ENCODING 36
SWIDTH 379 0
DWIDTH 11 0
BBX 9 15 1 -1
BITMAP
0800
0800
6A00
C900
AA80
A800
9800
4600
3900
0680
2A80
AA80
4900
2A00
0800
ENDCHAR
STARTCHAR percent
ENCODING 37
SWIDTH 493 0
DWIDTH 14 0
BBX 12 12 1 0
BITMAP
70A0
A940
D940
AA80
8D00
7500
0AE0
1510
16D0
2AD0
3110
50E0
ENDCHAR
STARTCHAR ampersand
ENCODING 38
SWIDTH 487 0
DWIDTH 14 0
BBX 12 12 1 0
BITMAP
0F00
1680
2A80
2A80
2480
1500
6A50
5920
A520
9A80
4240
3DE0
ENDCHAR
STARTCHAR quotesingle
ENCODING 39
SWIDTH 146 0
DWIDTH 4 0
BBX 2 4 1 8
BITMAP
C0
C0
C0
C0
ENDCHAR
STARTCHAR parenleft
ENCODING 40
SWIDTH 210 0
DWIDTH 6 0
BBX 4 14 1 -1
BITMAP
50
50
60
A0
A0
A0
A0
A0
A0
A0
A0
A0
50
50
ENDCHAR
STARTCHAR parenright
ENCODING 41
SWIDTH 210 0
DWIDTH 6 0
BBX 4 14 1 -1
BITMAP
C0
A0
A0
50
50
50
50
50
50
50
50
60
A0
E0
ENDCHAR
STARTCHAR asterisk
ENCODING 42
SWIDTH 358 0
DWIDTH 10 0
BBX 8 7 1 5
BITMAP
18
18
66
C3
24
5A
24
ENDCHAR
STARTCHAR plus
ENCODING 43
SWIDTH 394 0
DWIDTH 11 0
BBX 9 9 1 2
BITMAP
1400
1400
1400
D580
1400
D580
1400
1400
1400
ENDCHAR
STARTCHAR comma
ENCODING 44
SWIDTH 216 0
DWIDTH 6 0
BBX 4 4 1 -1
BITMAP
50
50
A0
A0
ENDCHAR
STARTCHAR hyphen
ENCODING 45
SWIDTH 326 0
DWIDTH 9 0
BBX 7 3 1 4
BITMAP
FE
00
FE
ENDCHAR
STARTCHAR period
ENCODING 46
SWIDTH 176 0
DWIDTH 5 0
BBX 3 2 1 0
BITMAP
A0
A0
ENDCHAR
STARTCHAR slash
ENCODING 47
SWIDTH 298 0
DWIDTH 8 0
BBX 7 12 1 0
BITMAP
1E
14
14
28
28
28
30
50
50
50
A0
A0
ENDCHAR
STARTCHAR zero
ENCODING 48
SWIDTH 306 0
DWIDTH 9 0
BBX 7 12 1 0
BITMAP
78
B4
AA
AA
AA
AA
AA
AA
AA
B2
84
78
ENDCHAR
STARTCHAR one
ENCODING 49
SWIDTH 306 0
DWIDTH 9 0
BBX 6 12 1 0
BITMAP
D4
14
D4
14
14
14
14
14
14
14
14
14
ENDCHAR
STARTCHAR two
ENCODING 50
SWIDTH 299 0
DWIDTH 8 0
BBX 7 12 1 0
BITMAP
78
C4
B2
AA
14
2C
48
B0
00
FC
00
FC
ENDCHAR
STARTCHAR three
ENCODING 51
SWIDTH 324 0
DWIDTH 9 0
BBX 7 12 1 0
BITMAP
3C
C2
BA
0A
08
06
02
0A
AA
BA
C6
3C
ENDCHAR
STARTCHAR four
ENCODING 52
SWIDTH 339 0
DWIDTH 9 0
BBX 8 12 1 0
BITMAP
14
24
28
28
50
D0
05
F5
05
F5
05
05
ENDCHAR
STARTCHAR five
ENCODING 53
SWIDTH 363 0
DWIDTH 10 0
BBX 7 12 2 0
BITMAP
FE
00
FE
00
A0
B0
AC
A2
0A
BA
C4
78
ENDCHAR
STARTCHAR six
ENCODING 54
SWIDTH 306 0
DWIDTH 9 0
BBX 7 12 1 0
BITMAP
78
B4
AA
A0
A0
B8
A4
BA
AA
B2
84
78
ENDCHAR
STARTCHAR seven
ENCODING 55
SWIDTH 298 0
DWIDTH 8 0
BBX 7 12 1 0
BITMAP
FE
00
FE
00
14
14
14
28
28
28
30
50
ENDCHAR
STARTCHAR eight
ENCODING 56
SWIDTH 306 0
DWIDTH 9 0
BBX 7 12 1 0
BITMAP
78
B4
AA
AA
94
C8
A4
92
AA
B2
C4
78
ENDCHAR
STARTCHAR nine
ENCODING 57
SWIDTH 306 0
DWIDTH 9 0
BBX 7 12 1 0
BITMAP
78
B4
AA
AA
AA
CA
6A
0A
AA
B2
C4
78
ENDCHAR
STARTCHAR colon
ENCODING 58
SWIDTH 176 0
DWIDTH 5 0
BBX 3 7 1 0
BITMAP
A0
A0
00
00
00
A0
A0
ENDCHAR
STARTCHAR semicolon
ENCODING 59
SWIDTH 217 0
DWIDTH 6 0
BBX 4 7 1 -1
BITMAP
50
50
00
00
50
50
A0
ENDCHAR
STARTCHAR less
ENCODING 60
SWIDTH 450 0
DWIDTH 13 0
BBX 10 12 1 0
BITMAP
0040
0040
0180
0640
0980
3200
CC00
3200
0980
0640
0180
0040
ENDCHAR
STARTCHAR equal
ENCODING 61
SWIDTH 344 0
DWIDTH 10 0
BBX 8 8 1 1
BITMAP
FF
00
FF
00
00
FF
00
FF
ENDCHAR
STARTCHAR greater
ENCODING 62
SWIDTH 450 0
DWIDTH 13 0
BBX 10 12 1 0
BITMAP
8000
4000
B000
CC00
3300
0C80
0240
1980
6600
9800
6000
8000
ENDCHAR
STARTCHAR question
ENCODING 63
SWIDTH 346 0
DWIDTH 10 0
BBX 7 12 1 0
BITMAP
3C
42
9A
AA
0A
12
14
28
28
00
28
28
ENDCHAR
STARTCHAR at
ENCODING 64
SWIDTH 490 0
DWIDTH 14 0
BBX 12 12 1 0
BITMAP
1F80
2F40
50A0
AED0
D6B0
D9B0
D9B0
D5D0
AEE0
5100
2F00
1F80
ENDCHAR
STARTCHAR A
ENCODING 65
SWIDTH 798 0
DWIDTH 22 0
BBX 21 23 1 0
BITMAP
01F800
015400
015400
02A400
02AC00
02AA00
054A00
055A00
055500
0A9500
0A8D00
0A8A80
150A80
150580
1AF540
2A0540
2BFAA0
5402A0
55FEA0
540150
A80150
A80150
B800A8
ENDCHAR
STARTCHAR B
ENCODING 66
SWIDTH 784 0
DWIDTH 22 0
BBX 20 23 1 0
BITMAP
ABFE00
ABFD80
A80140
ABFCC0
A802A0
A802A0
A802A0
A802A0
ABFCA0
A80140
ABFE40
A801A0
ABFE50
A80150
A80150
A80150
A80150
A80150
ABFE90
A801A0
ABFE40
A80080
ABFF00
ENDCHAR
STARTCHAR C
ENCODING 67
SWIDTH 776 0
DWIDTH 22 0
BBX 20 23 1 0
BITMAP
00FF00
03FEC0
0B01B0
147C40
298360
520080
540000
A80000
A80000
A80000
B00000
B00000
A80000
A80000
A80000
940000
520080
490360
24FC40
1301B0
08FE60
070180
00FE00
ENDCHAR
STARTCHAR D
ENCODING 68
SWIDTH 806 0
DWIDTH 23 0
BBX 21 23 1 0
BITMAP
ABF800
ABF600
A80D80
ABF3C0
A80CC0
A802A0
A80150
A80150
A800B0
A800A8
A800A8
A800A8
A800A8
A800A8
A80150
A80150
A80290
A80CA0
ABF360
A80CC0
ABF180
A80600
ABF800
ENDCHAR
STARTCHAR E
ENCODING 69
SWIDTH 677 0
DWIDTH 19 0
BBX 17 23 1 0
BITMAP
ABFF80
ABFF80
A80000
ABFF80
A80000
A80000
A80000
A80000
A80000
ABFF00
A80000
ABFF00
A80000
ABFF00
A80000
A80000
A80000
A80000
ABFF80
A80000
ABFF80
A80000
ABFF80
ENDCHAR
STARTCHAR F
ENCODING 70
SWIDTH 677 0
DWIDTH 19 0
BBX 17 23 1 0
BITMAP
ABFF80
ABFF80
A80000
ABFF80
A80000
A80000
A80000
A80000
A80000
ABFF00
A80000
ABFF00
A80000
ABFF00
A80000
A80000
A80000
A80000
A80000
A80000
A80000
A80000
A80000
ENDCHAR
STARTCHAR G
ENCODING 71
SWIDTH 872 0
DWIDTH 24 0
BBX 23 23 1 0
BITMAP
00FE00
03FFC0
0B01A0
147C50
298328
520090
540040
A80000
A80000
A80000
B00FFE
B00000
A80FFE
A80000
A80FFE
940000
5200D4
4901A4
24FC48
130190
08FE60
070180
00FE00
ENDCHAR
STARTCHAR H
ENCODING 72
SWIDTH 781 0
DWIDTH 22 0
BBX 19 23 1 0
BITMAP
A80160
A80160
A80160
A80160
A80160
A80160
A80160
A80160
A80160
ABFD60
A80160
ABFD60
A80160
ABFD60
A80160
A80160
A80160
A80160
A80160
A80160
A80160
A80160
A80160
ENDCHAR
STARTCHAR I
ENCODING 73
SWIDTH 262 0
DWIDTH 7 0
BBX 5 23 1 0
BITMAP
A8
A8
A8
A8
A8
A8
A8
A8
A8
A8
A8
A8
A8
A8
A8
A8
A8
A8
A8
A8
A8
A8
A8
ENDCHAR
STARTCHAR J
ENCODING 74
SWIDTH 674 0
DWIDTH 19 0
BBX 16 23 1 0
BITMAP
000B
000B
000B
000B
000B
000B
000B
000B
000B
000B
000B
000B
000B
000B
D00B
D00B
A815
AC35
53C9
4812
27E4
1818
07E0
ENDCHAR
STARTCHAR K
ENCODING 75
SWIDTH 739 0
DWIDTH 21 0
BBX 19 23 1 0
BITMAP
A805A0
A80940
A80A80
A81480
A82500
A82A00
A85600
A85400
A92800
A89000
AA5000
AD6000
AAA000
AA5000
A96800
A8A400
A85400
A84A00
A82500
A81480
A80A80
A80D40
A806A0
ENDCHAR
STARTCHAR L
ENCODING 76
SWIDTH 604 0
DWIDTH 17 0
BBX 16 23 1 0
BITMAP
A800
A800
A800
A800
A800
A800
A800
A800
A800
A800
A800
A800
A800
A800
A800
A800
A800
A800
ABFF
A800
ABFF
A800
ABFF
ENDCHAR
STARTCHAR M
ENCODING 77
SWIDTH 909 0
DWIDTH 25 0
BBX 23 23 1 0
BITMAP
A8002A
A8006A
AA006A
AA00AA
A9012A
AB016A
AA82AA
A944AA
AD256A
AAAA6A
AA52AA
A94D2A
A8A92A
A8942A
A85C2A
A8282A
A8102A
A8102A
A8002A
A8002A
A8002A
A8002A
A8002A
ENDCHAR
STARTCHAR N
ENCODING 78
SWIDTH 796 0
DWIDTH 22 0
BBX 20 23 1 0
BITMAP
A80150
A80150
AA0150
AA0150
A90150
AA8150
AA8150
A94150
AB2150
AAA150
A95150
A92950
A8AD50
A85550
A84B50
A82950
A81550
A81350
A80950
A80550
A80550
A80350
A80150
ENDCHAR
STARTCHAR O
ENCODING 79
SWIDTH 894 0
DWIDTH 25 0
BBX 23 23 1 0
BITMAP
00FE00
03FFC0
0B01E0
147C50
298328
520094
540054
A8002A
A8002A
A8002A
B0001A
B0001A
A8002A
A8002A
A8002A
940052
5200D4
490124
24FE48
130190
08FE20
0701C0
00FE00
ENDCHAR
STARTCHAR P
ENCODING 80
SWIDTH 743 0
DWIDTH 21 0
BBX 19 23 1 0
BITMAP
ABFE00
ABFD80
A80140
ABFCC0
A802A0
A802A0
A802A0
A802A0
ABFCA0
A80140
ABFE40
A80180
ABFE00
A80000
A80000
A80000
A80000
A80000
A80000
A80000
A80000
A80000
A80000
ENDCHAR
STARTCHAR Q
ENCODING 81
SWIDTH 911 0
DWIDTH 26 0
BBX 24 23 1 0
BITMAP
00FE00
03FFC0
0B01A0
147C50
298328
520094
540054
A8002A
A8002A
A8002A
B0001A
B0001A
A800AA
A800DA
A8016A
9404B4
520258
49012C
24FE96
13014B
08FE24
0701D4
00FE08
ENDCHAR
STARTCHAR R
ENCODING 82
SWIDTH 745 0
DWIDTH 21 0
BBX 19 23 1 0
BITMAP
ABFE00
ABFD80
A80140
ABFCC0
A802A0
A802A0
A802A0
A802A0
ABFCA0
A80140
ABFE40
A80180
ABFE00
A80000
A82A00
A81500
A81500
A81280
A80A80
A80A80
A80540
A80540
A802A0
ENDCHAR
STARTCHAR S
ENCODING 83
SWIDTH 660 0
DWIDTH 18 0
BBX 17 23 1 0
BITMAP
07F000
1BEC00
281A00
53E500
AC1500
A80A00
A80000
A80000
970000
4CE000
239800
187600
078900
006500
001A80
000A80
300A80
AC1280
B3E500
581900
27E200
180C00
07F000
ENDCHAR
STARTCHAR T
ENCODING 84
SWIDTH 641 0
DWIDTH 18 0
BBX 18 23 0 0
BITMAP
FFFFC0
FFFFC0
000000
FFFFC0
000000
01A000
01A000
01A000
01A000
01A000
01A000
01A000
01A000
01A000
01A000
01A000
01A000
01A000
01A000
01A000
01A000
01A000
01A000
ENDCHAR
STARTCHAR U
ENCODING 85
SWIDTH 702 0
DWIDTH 20 0
BBX 17 23 1 0
BITMAP
A80680
A80680
A80680
A80680
A80680
A80680
A80680
A80680
A80680
A80680
A80680
A80680
A80680
A80680
A80680
A80A80
640A80
561280
4BE500
2C0900
13F200
0C0C00
03F000
ENDCHAR
STARTCHAR V
ENCODING 86
SWIDTH 758 0
DWIDTH 21 0
BBX 20 23 1 0
BITMAP
B80150
A802A0
A802A0
5402A0
540540
540540
2A0540
2A0A80
2A0A80
150A80
151500
151500
0A9500
0AAA00
0AAA00
054A00
055400
055400
02A400
02A800
02A800
015000
015000
ENDCHAR
STARTCHAR W
ENCODING 87
SWIDTH 972 0
DWIDTH 27 0
BBX 26 23 1 0
BITMAP
F0170540
A82A0680
A82A0A80
A82A0A80
682C0A80
54550D00
54551500
54551500
34591500
2AAA9A00
2AAAAA00
2AAAAA00
1AB5AA00
15555400
15555400
15555400
0D62D400
0AA2A800
0AA2A800
0AA2A800
06816000
05415000
05415000
ENDCHAR
STARTCHAR X
ENCODING 88
SWIDTH 712 0
DWIDTH 20 0
BBX 18 23 1 0
BITMAP
AC0F40
540A80
4A1500
2A1500
152A00
152A00
0A9400
0A5400
054800
04A800
02A000
015000
055000
04A800
0AA400
0A5400
154A00
152A00
2A1500
2A1500
540A80
940A40
A80540
ENDCHAR
STARTCHAR Y
ENCODING 89
SWIDTH 769 0
DWIDTH 22 0
BBX 21 23 0 0
BITMAP
D401A8
520150
2A0290
1502A0
148540
0A8B40
094A80
053500
02AD00
025200
015200
00A800
000400
00A800
00A800
00A800
00A800
00A800
00A800
00A800
00A800
00A800
00A800
ENDCHAR
STARTCHAR Z
ENCODING 90
SWIDTH 708 0
DWIDTH 20 0
BBX 20 23 0 0
BITMAP
3FFAB0
3FF5A0
000540
3FEA80
001A80
001500
002900
002A00
005400
009400
00A800
014800
015000
02A000
04A000
054000
0A4000
0A8000
157FC0
250000
2AFFC0
560000
F5FFC0
ENDCHAR
STARTCHAR bracketleft
ENCODING 91
SWIDTH 320 0
DWIDTH 9 0
BBX 7 13 1 -1
BITMAP
AE
AE
A0
A0
A0
A0
A0
A0
A0
A0
AE
A0
AE
ENDCHAR
STARTCHAR backslash
ENCODING 92
SWIDTH 298 0
DWIDTH 8 0
BBX 7 12 1 0
BITMAP
A0
A0
50
50
50
30
28
28
28
14
14
1E
ENDCHAR
STARTCHAR bracketright
ENCODING 93
SWIDTH 320 0
DWIDTH 9 0
BBX 7 13 1 -1
BITMAP
EA
EA
0A
0A
0A
0A
0A
0A
0A
0A
EA
0A
EA
ENDCHAR
STARTCHAR asciicircum
ENCODING 94
SWIDTH 309 0
DWIDTH 9 0
BBX 6 5 1 7
BITMAP
10
28
28
58
D4
ENDCHAR
STARTCHAR underscore
ENCODING 95
SWIDTH 472 0
DWIDTH 13 0
BBX 11 3 1 0
BITMAP
FFE0
0000
FFE0
ENDCHAR
STARTCHAR grave
ENCODING 96
SWIDTH 195 0
DWIDTH 5 0
BBX 3 3 1 14
BITMAP
C0
40
20
ENDCHAR
STARTCHAR a
ENCODING 97
SWIDTH 414 0
DWIDTH 12 0
BBX 11 12 0 0
BITMAP
0A00
0B00
1500
1500
1680
2A80
2A80
2940
5F40
5120
5FA0
A0A0
ENDCHAR
STARTCHAR b
ENCODING 98
SWIDTH 423 0
DWIDTH 12 0
BBX 10 12 1 0
BITMAP
BF00
A080
BE40
A140
A140
BF40
A080
BF40
A140
BF40
A0C0
BF00
ENDCHAR
STARTCHAR c
ENCODING 99
SWIDTH 446 0
DWIDTH 12 0
BBX 11 12 1 0
BITMAP
1F00
20C0
4F20
9080
A000
A000
A000
A000
9080
4F20
20C0
1F00
ENDCHAR
STARTCHAR d
ENCODING 100
SWIDTH 450 0
DWIDTH 13 0
BBX 11 12 1 0
BITMAP
BE00
A180
BE40
A140
A0A0
A0A0
A0A0
A0A0
A140
BE40
A180
BE00
ENDCHAR
STARTCHAR e
ENCODING 101
SWIDTH 363 0
DWIDTH 10 0
BBX 9 12 1 0
BITMAP
BF80
A000
BF80
A000
A000
BF00
A000
BF00
A000
BF80
A000
BF80
ENDCHAR
STARTCHAR f
ENCODING 102
SWIDTH 365 0
DWIDTH 10 0
BBX 9 12 1 0
BITMAP
BF80
A000
BF80
A000
A000
BF00
A000
BF00
A000
A000
A000
A000
ENDCHAR
STARTCHAR g
ENCODING 103
SWIDTH 483 0
DWIDTH 14 0
BBX 12 12 1 0
BITMAP
1F00
20C0
4F20
9080
A000
A3F0
A000
A3F0
9090
4F20
20C0
1F00
ENDCHAR
STARTCHAR h
ENCODING 104
SWIDTH 428 0
DWIDTH 12 0
BBX 10 12 1 0
BITMAP
A140
A140
A140
A140
A140
BF40
A140
BF40
A140
A140
A140
A140
ENDCHAR
STARTCHAR i
ENCODING 105
SWIDTH 176 0
DWIDTH 5 0
BBX 3 12 1 0
BITMAP
A0
A0
A0
A0
A0
A0
A0
A0
A0
A0
A0
A0
ENDCHAR
STARTCHAR j
ENCODING 106
SWIDTH 390 0
DWIDTH 11 0
BBX 9 12 1 0
BITMAP
0280
0280
0280
0280
0280
0280
0280
A280
A280
9D00
4300
3C00
ENDCHAR
STARTCHAR k
ENCODING 107
SWIDTH 381 0
DWIDTH 11 0
BBX 9 12 1 0
BITMAP
A280
A500
A500
AA00
B200
B400
AC00
B400
B200
AB00
A500
A280
ENDCHAR
STARTCHAR l
ENCODING 108
SWIDTH 330 0
DWIDTH 9 0
BBX 8 12 1 0
BITMAP
A0
A0
A0
A0
A0
A0
A0
A0
A0
BF
A0
BF
ENDCHAR
STARTCHAR m
ENCODING 109
SWIDTH 501 0
DWIDTH 14 0
BBX 12 12 1 0
BITMAP
A050
B0D0
A950
A950
B6D0
BAD0
A950
A450
A250
A050
A050
A050
ENDCHAR
STARTCHAR n
ENCODING 110
SWIDTH 444 0
DWIDTH 12 0
BBX 10 12 1 0
BITMAP
A0C0
B0C0
B0C0
A8C0
B4C0
B6C0
AAC0
A540
A540
A2C0
A140
A140
ENDCHAR
STARTCHAR o
ENCODING 111
SWIDTH 494 0
DWIDTH 14 0
BBX 12 12 1 0
BITMAP
1F00
20C0
4F20
90A0
A050
A050
A050
A050
90A0
4F20
20C0
1F00
ENDCHAR
STARTCHAR p
ENCODING 112
SWIDTH 412 0
DWIDTH 12 0
BBX 10 12 1 0
BITMAP
BF00
A080
BE40
A140
A140
BE40
A080
BF00
A000
A000
A000
A000
ENDCHAR
STARTCHAR q
ENCODING 113
SWIDTH 494 0
DWIDTH 14 0
BBX 12 12 1 0
BITMAP
1F00
20C0
4F20
9090
A050
A050
A0D0
A0D0
9360
4FB0
20D0
1F60
ENDCHAR
STARTCHAR r
ENCODING 114
SWIDTH 412 0
DWIDTH 12 0
BBX 10 12 1 0
BITMAP
BF00
A080
BE40
A140
A140
BE40
A080
BF00
A500
A500
A280
A2C0
ENDCHAR
STARTCHAR s
ENCODING 115
SWIDTH 379 0
DWIDTH 11 0
BBX 9 12 1 0
BITMAP
3E00
4100
BD00
A280
B000
4E00
3900
0680
2280
BC80
4100
3E00
ENDCHAR
STARTCHAR t
ENCODING 116
SWIDTH 349 0
DWIDTH 10 0
BBX 9 12 0 0
BITMAP
FF80
0000
FF80
1400
1400
1400
1400
1400
1400
1400
1400
1400
ENDCHAR
STARTCHAR u
ENCODING 117
SWIDTH 400 0
DWIDTH 11 0
BBX 9 12 1 0
BITMAP
A280
A280
A280
A280
A280
A280
A280
A280
A280
5C80
4100
3E00
ENDCHAR
STARTCHAR v
ENCODING 118
SWIDTH 394 0
DWIDTH 11 0
BBX 11 12 0 0
BITMAP
A0A0
5140
5140
5140
2A80
2A80
2A80
1500
1500
1500
0A00
0A00
ENDCHAR
STARTCHAR w
ENCODING 119
SWIDTH 521 0
DWIDTH 15 0
BBX 14 12 0 0
BITMAP
A294
6294
5394
5598
5568
3568
2B68
2B68
2AB0
1AB0
14B0
14A0
ENDCHAR
STARTCHAR x
ENCODING 120
SWIDTH 369 0
DWIDTH 10 0
BBX 10 12 0 0
BITMAP
5340
5280
2C80
2500
1600
1200
1A00
1500
2D00
2A80
5280
F140
ENDCHAR
STARTCHAR y
ENCODING 121
SWIDTH 422 0
DWIDTH 12 0
BBX 12 12 0 0
BITMAP
D0B0
5920
2940
3680
1480
0B00
0000
0A00
0A00
0A00
0A00
0A00
ENDCHAR
STARTCHAR z
ENCODING 122
SWIDTH 409 0
DWIDTH 11 0
BBX 9 12 1 0
BITMAP
FF80
0000
FF80
0480
0900
1A00
3400
2800
5000
FF80
0000
FF80
ENDCHAR
STARTCHAR braceleft
ENCODING 123
SWIDTH 443 0
DWIDTH 12 0
BBX 10 13 1 -1
BITMAP
0BC0
0BC0
0A00
0A00
0A00
EA00
0A00
EA00
0A00
0A00
0BC0
0A00
0BC0
ENDCHAR
STARTCHAR bar
ENCODING 124
SWIDTH 196 0
DWIDTH 5 0
BBX 3 14 1 -1
BITMAP
A0
A0
A0
A0
A0
A0
A0
A0
A0
A0
A0
A0
A0
A0
ENDCHAR
STARTCHAR braceright
ENCODING 125
SWIDTH 506 0
DWIDTH 14 0
BBX 10 13 3 -1
BITMAP
EC00
EC00
0C00
0C00
0C00
0DC0
0C00
0DC0
0C00
0C00
EC00
0C00
EC00
ENDCHAR
STARTCHAR asciitilde
ENCODING 126
SWIDTH 450 0
DWIDTH 13 0
BBX 10 4 1 4
BITMAP
7840
87C0
7840
87C0
ENDCHAR
STARTCHAR uni00A0
ENCODING 160
SWIDTH 280 0
DWIDTH 8 0
BBX 1 1 0 0
BITMAP
00
ENDCHAR
STARTCHAR exclamdown
ENCODING 161
SWIDTH 196 0
DWIDTH 5 0
BBX 3 11 1 -3
BITMAP
A0
A0
00
A0
A0
A0
A0
A0
A0
A0
A0
ENDCHAR
STARTCHAR cent
ENCODING 162
SWIDTH 305 0
DWIDTH 9 0
BBX 8 14 0 -1
BITMAP
14
14
1E
63
5D
A2
A0
A0
A2
5D
63
1E
14
14
ENDCHAR
STARTCHAR sterling
ENCODING 163
SWIDTH 408 0
DWIDTH 11 0
BBX 11 12 0 0
BITMAP
3E00
4100
5D80
2200
FF00
0000
FF00
0000
3800
FFE0
0000
FFE0
ENDCHAR
STARTCHAR currency
ENCODING 164
SWIDTH 401 0
DWIDTH 11 0
BBX 9 10 1 1
BITMAP
4100
2200
DC80
2200
2E00
3A00
2200
DC80
A280
4100
ENDCHAR
STARTCHAR yen
ENCODING 165
SWIDTH 423 0
DWIDTH 12 0
BBX 12 12 0 0
BITMAP
D0B0
4920
2940
1680
1680
0B00
0000
0600
36C0
0600
36C0
0600
ENDCHAR
STARTCHAR brokenbar
ENCODING 166
SWIDTH 196 0
DWIDTH 5 0
BBX 3 13 1 0
BITMAP
A0
A0
A0
A0
A0
00
00
00
A0
A0
A0
A0
A0
ENDCHAR
STARTCHAR section
ENCODING 167
SWIDTH 322 0
DWIDTH 9 0
BBX 7 14 1 -2
BITMAP
7C
FA
C4
B0
4C
BA
C6
B2
4C
3A
46
BA
C6
3C
ENDCHAR
STARTCHAR dieresis
ENCODING 168
SWIDTH 287 0
DWIDTH 8 0
BBX 6 2 1 14
BITMAP
48
CC
ENDCHAR
STARTCHAR copyright
ENCODING 169
SWIDTH 493 0
DWIDTH 14 0
BBX 12 13 1 0
BITMAP
0F00
30C0
4020
C020
8F10
9910
9010
9010
9910
CF20
4020
30C0
0F00
ENDCHAR
STARTCHAR ordfeminine
ENCODING 170
SWIDTH 331 0
DWIDTH 9 0
BBX 7 5 1 6
BITMAP
38
34
5C
7C
BE
ENDCHAR
STARTCHAR guillemotleft
ENCODING 171
SWIDTH 298 0
DWIDTH 8 0
BBX 6 6 1 3
BITMAP
24
4C
BC
B4
C8
24
ENDCHAR
STARTCHAR logicalnot
ENCODING 172
SWIDTH 420 0
DWIDTH 12 0
BBX 10 6 1 1
BITMAP
FFC0
0000
FFC0
0000
0140
0140
ENDCHAR
STARTCHAR uni00AD
ENCODING 173
SWIDTH 326 0
DWIDTH 9 0
BBX 7 3 1 4
BITMAP
FE
00
FE
ENDCHAR
STARTCHAR registered
ENCODING 174
SWIDTH 493 0
DWIDTH 14 0
BBX 12 13 1 0
BITMAP
0F00
30C0
4020
C020
8F10
8910
8910
8F10
8910
C020
4020
30C0
0F00
ENDCHAR
STARTCHAR macron
ENCODING 175
SWIDTH 331 0
DWIDTH 9 0
BBX 7 1 1 14
BITMAP
FE
ENDCHAR
STARTCHAR degree
ENCODING 176
SWIDTH 298 0
DWIDTH 8 0
BBX 6 6 1 6
BITMAP
38
44
B4
B4
44
38
ENDCHAR
STARTCHAR plusminus
ENCODING 177
SWIDTH 418 0
DWIDTH 12 0
BBX 10 12 1 0
BITMAP
1400
1400
1400
F580
1400
F580
1400
1400
0000
FFC0
0000
FFC0
ENDCHAR
STARTCHAR uni00B2
ENCODING 178
SWIDTH 233 0
DWIDTH 7 0
BBX 4 5 1 6
BITMAP
70
B0
60
F0
F0
ENDCHAR
STARTCHAR uni00B3
ENCODING 179
SWIDTH 228 0
DWIDTH 6 0
BBX 4 5 1 6
BITMAP
F0
20
30
F0
60
ENDCHAR
STARTCHAR acute
ENCODING 180
SWIDTH 195 0
DWIDTH 5 0
BBX 3 3 1 14
BITMAP
20
40
C0
ENDCHAR
STARTCHAR uni00B5
ENCODING 181
SWIDTH 506 0
DWIDTH 14 0
BBX 13 15 1 -3
BITMAP
A180
A180
A180
A180
A180
A180
A180
A180
A280
ACB0
A140
AEF8
A000
A000
A000
ENDCHAR
STARTCHAR paragraph
ENCODING 182
SWIDTH 435 0
DWIDTH 12 0
BBX 10 12 1 0
BITMAP
7FC0
8000
BFC0
A000
A540
B540
C540
7540
0540
0540
0540
0540
ENDCHAR
STARTCHAR periodcentered
ENCODING 183
SWIDTH 176 0
DWIDTH 5 0
BBX 3 2 1 5
BITMAP
A0
A0
ENDCHAR
STARTCHAR cedilla
ENCODING 184
SWIDTH 261 0
DWIDTH 7 0
BBX 5 5 1 -5
BITMAP
20
70
08
08
F0
ENDCHAR
STARTCHAR uni00B9
ENCODING 185
SWIDTH 218 0
DWIDTH 6 0
BBX 4 5 1 6
BITMAP
F0
30
30
30
30
ENDCHAR
STARTCHAR ordmasculine
ENCODING 186
SWIDTH 335 0
DWIDTH 9 0
BBX 7 7 1 6
BITMAP
38
44
9A
A6
A6
5C
38
ENDCHAR
STARTCHAR guillemotright
ENCODING 187
SWIDTH 298 0
DWIDTH 8 0
BBX 6 6 1 3
BITMAP
90
4C
B4
AC
64
88
ENDCHAR
STARTCHAR onequarter
ENCODING 188
SWIDTH 429 0
DWIDTH 12 0
BBX 10 12 1 0
BITMAP
E180
E180
6300
6300
6600
6600
0D80
1580
1B00
28C0
33C0
53C0
ENDCHAR
STARTCHAR onehalf
ENCODING 189
SWIDTH 437 0
DWIDTH 12 0
BBX 10 12 1 0
BITMAP
E180
E280
6300
6600
6600
6C00
0D80
19C0
18C0
3140
51C0
61C0
ENDCHAR
STARTCHAR threequarters
ENCODING 190
SWIDTH 409 0
DWIDTH 11 0
BBX 10 12 1 0
BITMAP
6100
D280
2300
5600
D600
4C00
0D80
1B00
2B00
33C0
50C0
63C0
ENDCHAR
STARTCHAR questiondown
ENCODING 191
SWIDTH 346 0
DWIDTH 10 0
BBX 7 12 1 -2
BITMAP
28
28
00
28
28
28
58
B0
A6
9A
42
3C
ENDCHAR
STARTCHAR Agrave
ENCODING 192
SWIDTH 798 0
DWIDTH 22 0
BBX 21 31 1 0
BITMAP
078000
028000
014000
014000
00A000
00D000
000000
000000
01F800
015400
015400
02A400
02AC00
02AA00
054A00
055A00
055500
0A9500
0A8D00
0A8A80
150A80
150580
1AF540
2A0540
2BFAA0
5402A0
55FEA0
540150
A80150
A80150
B800A8
ENDCHAR
STARTCHAR Aacute
ENCODING 193
SWIDTH 798 0
DWIDTH 22 0
BBX 21 31 1 0
BITMAP
000A00
001200
001400
002400
002800
005000
000000
000000
01F800
015400
015400
02A400
02AC00
02AA00
054A00
055A00
055500
0A9500
0A8D00
0A8A80
150A80
150580
1AF540
2A0540
2BFAA0
5402A0
55FEA0
540150
A80150
A80150
B800A8
ENDCHAR
STARTCHAR Acircumflex
ENCODING 194
SWIDTH 798 0
DWIDTH 22 0
BBX 21 31 1 0
BITMAP
00B000
014800
024800
02B400
051200
0B0B00
000000
000000
01F800
015400
015400
02A400
02AC00
02AA00
054A00
055A00
055500
0A9500
0A8D00
0A8A80
150A80
150580
1AF540
2A0540
2BFAA0
5402A0
55FEA0
540150
A80150
A80150
B800A8
ENDCHAR
STARTCHAR Atilde
ENCODING 195
SWIDTH 798 0
DWIDTH 22 0
BBX 21 29 1 0
BITMAP
038100
044200
042200
041C00
000000
000000
01F800
015400
015400
02A400
02AC00
02AA00
054A00
055A00
055500
0A9500
0A8D00
0A8A80
150A80
150580
1AF540
2A0540
2BFAA0
5402A0
55FEA0
540150
A80150
A80150
B800A8
ENDCHAR
STARTCHAR Adieresis
ENCODING 196
SWIDTH 798 0
DWIDTH 22 0
BBX 21 31 1 0
BITMAP
070600
088900
089080
089080
088900
070F00
000000
000000
01F800
015400
015400
02A400
02AC00
02AA00
054A00
055A00
055500
0A9500
0A8D00
0A8A80
150A80
150580
1AF540
2A0540
2BFAA0
5402A0
55FEA0
540150
A80150
A80150
B800A8
ENDCHAR
STARTCHAR Aring
ENCODING 197
SWIDTH 798 0
DWIDTH 22 0
BBX 21 31 1 0
BITMAP
007000
008800
010800
010800
008800
007000
000000
000000
01F800
015400
015400
02A400
02AC00
02AA00
054A00
055A00
055500
0A9500
0A8D00
0A8A80
150A80
150580
1AF540
2A0540
2BFAA0
5402A0
55FEA0
540150
A80150
A80150
B800A8
ENDCHAR
STARTCHAR AE
ENCODING 198
SWIDTH 1078 0
DWIDTH 30 0
BBX 28 23 1 0
BITMAP
00157FF0
00357FF0
00550000
00557FF0
00750000
00AD0000
00AB0000
014A8000
016A8000
02AABFE0
02AA8000
054ABFE0
054A8000
0A86BFE0
0A868000
15058000
15754000
2A054000
2AF55FF0
54054000
55F55FF0
A8054000
A8035FF0
ENDCHAR
STARTCHAR Ccedilla
ENCODING 199
SWIDTH 776 0
DWIDTH 22 0
BBX 20 30 1 -7
BITMAP
00FF00
03FEC0
0B01B0
147C40
298360
520080
540000
A80000
A80000
A80000
B00000
B00000
A80000
A80000
A80000
940000
520080
490360
24FC40
1301B0
08FE60
070180
00FE00
006000
004000
00F000
008800
000800
010800
00F000
ENDCHAR
STARTCHAR Egrave
ENCODING 200
SWIDTH 677 0
DWIDTH 19 0
BBX 17 31 1 0
BITMAP
014000
012000
00A000
005000
005000
002800
000000
000000
ABFF80
ABFF80
A80000
ABFF80
A80000
A80000
A80000
A80000
A80000
ABFF00
A80000
ABFF00
A80000
ABFF00
A80000
A80000
A80000
A80000
ABFF80
A80000
ABFF80
A80000
ABFF80
ENDCHAR
STARTCHAR Eacute
ENCODING 201
SWIDTH 677 0
DWIDTH 19 0
BBX 17 31 1 0
BITMAP
002800
005000
009000
00A000
014000
034000
000000
000000
ABFF80
ABFF80
A80000
ABFF80
A80000
A80000
A80000
A80000
A80000
ABFF00
A80000
ABFF00
A80000
ABFF00
A80000
A80000
A80000
A80000
ABFF80
A80000
ABFF80
A80000
ABFF80
ENDCHAR
STARTCHAR Ecircumflex
ENCODING 202
SWIDTH 677 0
DWIDTH 19 0
BBX 17 31 1 0
BITMAP
01A000
015000
028800
04A400
051400
0A0A00
000000
000000
ABFF80
ABFF80
A80000
ABFF80
A80000
A80000
A80000
A80000
A80000
ABFF00
A80000
ABFF00
A80000
ABFF00
A80000
A80000
A80000
A80000
ABFF80
A80000
ABFF80
A80000
ABFF80
ENDCHAR
STARTCHAR Edieresis
ENCODING 203
SWIDTH 677 0
DWIDTH 19 0
BBX 17 31 1 0
BITMAP
070E00
099100
109100
109100
099100
070E00
000000
000000
ABFF80
ABFF80
A80000
ABFF80
A80000
A80000
A80000
A80000
A80000
ABFF00
A80000
ABFF00
A80000
ABFF00
A80000
A80000
A80000
A80000
ABFF80
A80000
ABFF80
A80000
ABFF80
ENDCHAR
STARTCHAR Igrave
ENCODING 204
SWIDTH 262 0
DWIDTH 7 0
BBX 7 31 -1 0
BITMAP
A0
A0
50
48
28
14
00
00
2A
2A
2A
2A
2A
2A
2A
2A
2A
2A
2A
2A
2A
2A
2A
2A
2A
2A
2A
2A
2A
2A
2A
ENDCHAR
STARTCHAR Iacute
ENCODING 205
SWIDTH 262 0
DWIDTH 7 0
BBX 8 31 1 0
BITMAP
0B
0A
14
14
28
58
00
00
A8
A8
A8
A8
A8
A8
A8
A8
A8
A8
A8
A8
A8
A8
A8
A8
A8
A8
A8
A8
A8
A8
A8
ENDCHAR
STARTCHAR Icircumflex
ENCODING 206
SWIDTH 262 0
DWIDTH 7 0
BBX 12 31 -3 0
BITMAP
0D00
0A80
1440
2D40
48A0
D0D0
0000
0000
0A80
0A80
0A80
0A80
0A80
0A80
0A80
0A80
0A80
0A80
0A80
0A80
0A80
0A80
0A80
0A80
0A80
0A80
0A80
0A80
0A80
0A80
0A80
ENDCHAR
STARTCHAR Idieresis
ENCODING 207
SWIDTH 262 0
DWIDTH 7 0
BBX 13 31 -3 0
BITMAP
7070
C888
8488
8488
C888
7070
0000
0000
0A80
0A80
0A80
0A80
0A80
0A80
0A80
0A80
0A80
0A80
0A80
0A80
0A80
0A80
0A80
0A80
0A80
0A80
0A80
0A80
0A80
0A80
0A80
ENDCHAR
STARTCHAR Eth
ENCODING 208
SWIDTH 856 0
DWIDTH 24 0
BBX 23 23 0 0
BITMAP
16FE00
16FFC0
1601E0
16FC50
160328
160094
160054
16002A
00002A
FFE02A
00002A
FFE02A
00002A
FFE02A
00002A
160052
160094
160324
16FC48
160190
16FE60
160180
16FE00
ENDCHAR
STARTCHAR Ntilde
ENCODING 209
SWIDTH 796 0
DWIDTH 22 0
BBX 20 29 1 0
BITMAP
038100
044200
042200
041C00
000000
000000
A80150
A80150
AA0150
AA0150
A90150
AA8150
AA8150
A94150
AB2150
AAA150
A95150
A92950
A8AD50
A85550
A84B50
A82950
A81550
A81350
A80950
A80550
A80550
A80350
A80150
ENDCHAR
STARTCHAR Ograve
ENCODING 210
SWIDTH 894 0
DWIDTH 25 0
BBX 23 31 1 0
BITMAP
014000
012000
00A000
005000
005000
002800
000000
000000
00FE00
03FFC0
0B01E0
147C50
298328
520094
540054
A8002A
A8002A
A8002A
B0001A
B0001A
A8002A
A8002A
A8002A
940052
5200D4
490124
24FE48
130190
08FE20
0701C0
00FE00
ENDCHAR
STARTCHAR Oacute
ENCODING 211
SWIDTH 894 0
DWIDTH 25 0
BBX 23 31 1 0
BITMAP
000500
000A00
000A00
001400
002400
002800
000000
000000
00FE00
03FFC0
0B01E0
147C50
298328
520094
540054
A8002A
A8002A
A8002A
B0001A
B0001A
A8002A
A8002A
A8002A
940052
5200D4
490124
24FE48
130190
08FE20
0701C0
00FE00
ENDCHAR
STARTCHAR Ocircumflex
ENCODING 212
SWIDTH 894 0
DWIDTH 25 0
BBX 23 31 1 0
BITMAP
007800
009400
00A200
014A00
024500
068680
000000
000000
00FE00
03FFC0
0B01E0
147C50
298328
520094
540054
A8002A
A8002A
A8002A
B0001A
B0001A
A8002A
A8002A
A8002A
940052
5200D4
490124
24FE48
130190
08FE20
0701C0
00FE00
ENDCHAR
STARTCHAR Otilde
ENCODING 213
SWIDTH 894 0
DWIDTH 25 0
BBX 23 29 1 0
BITMAP
00E080
013080
021900
020E00
000000
000000
00FE00
03FFC0
0B01E0
147C50
298328
520094
540054
A8002A
A8002A
A8002A
B0001A
B0001A
A8002A
A8002A
A8002A
940052
5200D4
490124
24FE48
130190
08FE20
0701C0
00FE00
ENDCHAR
STARTCHAR Odieresis
ENCODING 214
SWIDTH 894 0
DWIDTH 25 0
BBX 23 31 1 0
BITMAP
038380
044440
042440
042440
044440
038380
000000
000000
00FE00
03FFC0
0B01E0
147C50
298328
520094
540054
A8002A
A8002A
A8002A
B0001A
B0001A
A8002A
A8002A
A8002A
940052
5200D4
490124
24FE48
130190
08FE20
0701C0
00FE00
ENDCHAR
STARTCHAR multiply
ENCODING 215
SWIDTH 370 0
DWIDTH 10 0
BBX 8 8 1 1
BITMAP
66
AD
5A
34
6A
D1
24
02
ENDCHAR
STARTCHAR Oslash
ENCODING 216
SWIDTH 894 0
DWIDTH 25 0
BBX 23 23 1 0
BITMAP
00FF20
07FC54
0B02A8
147CE8
298154
5202A4
54032C
A8054A
A80AAA
A8152A
B0951A
B12A1A
A9502A
AA702A
A4A02A
6D4054
4B80D4
52812C
257E48
2A0190
4A7E60
150180
08FE00
ENDCHAR
STARTCHAR Ugrave
ENCODING 217
SWIDTH 702 0
DWIDTH 20 0
BBX 17 31 1 0
BITMAP
0A0000
090000
050000
028000
028000
014000
000000
000000
A80680
A80680
A80680
A80680
A80680
A80680
A80680
A80680
A80680
A80680
A80680
A80680
A80680
A80680
A80680
A80A80
640A80
561280
4BE500
2C0900
13F200
0C0C00
03F000
ENDCHAR
STARTCHAR Uacute
ENCODING 218
SWIDTH 702 0
DWIDTH 20 0
BBX 17 31 1 0
BITMAP
003400
002800
005000
005000
00A000
01A000
000000
000000
A80680
A80680
A80680
A80680
A80680
A80680
A80680
A80680
A80680
A80680
A80680
A80680
A80680
A80680
A80680
A80A80
640A80
561280
4BE500
2C0900
13F200
0C0C00
03F000
ENDCHAR
STARTCHAR Ucircumflex
ENCODING 219
SWIDTH 702 0
DWIDTH 20 0
BBX 17 31 1 0
BITMAP
034000
02A000
051000
094800
0A2800
141400
000000
000000
A80680
A80680
A80680
A80680
A80680
A80680
A80680
A80680
A80680
A80680
A80680
A80680
A80680
A80680
A80680
A80A80
640A80
561280
4BE500
2C0900
13F200
0C0C00
03F000
ENDCHAR
STARTCHAR Udieresis
ENCODING 220
SWIDTH 702 0
DWIDTH 20 0
BBX 17 31 1 0
BITMAP
0E1C00
122200
212200
212200
122200
0E1C00
000000
000000
A80680
A80680
A80680
A80680
A80680
A80680
A80680
A80680
A80680
A80680
A80680
A80680
A80680
A80680
A80680
A80A80
640A80
561280
4BE500
2C0900
13F200
0C0C00
03F000
ENDCHAR
STARTCHAR Yacute
ENCODING 221
SWIDTH 769 0
DWIDTH 22 0
BBX 21 31 0 0
BITMAP
000B00
000A00
001400
001400
002800
005800
000000
000000
D401A8
520150
2A0290
1502A0
148540
0A8B40
094A80
053500
02AD00
025200
015200
00A800
000400
00A800
00A800
00A800
00A800
00A800
00A800
00A800
00A800
00A800
00A800
ENDCHAR
STARTCHAR Thorn
ENCODING 222
SWIDTH 743 0
DWIDTH 21 0
BBX 19 23 1 0
BITMAP
A80000
A80000
A80000
A80000
ABFE00
A80180
ABFCC0
A80140
ABFCA0
A802A0
A802A0
A802A0
A802A0
ABFCA0
A80140
ABFEC0
A80180
ABFE00
A80000
A80000
A80000
A80000
A80000
ENDCHAR
STARTCHAR germandbls
ENCODING 223
SWIDTH 424 0
DWIDTH 12 0
BBX 10 12 1 0
BITMAP
3F00
4080
BE80
A180
A180
A780
A080
A740
A140
AF40
A0C0
AF00
ENDCHAR
STARTCHAR agrave
ENCODING 224
SWIDTH 414 0
DWIDTH 12 0
BBX 11 17 0 0
BITMAP
0800
0400
0600
0000
0000
0A00
0B00
1500
1500
1680
2A80
2A80
2940
5F40
5120
5FA0
A0A0
ENDCHAR
STARTCHAR aacute
ENCODING 225
SWIDTH 414 0
DWIDTH 12 0
BBX 11 17 0 0
BITMAP
0100
0100
0200
0000
0000
0A00
0B00
1500
1500
1680
2A80
2A80
2940
5F40
5120
5FA0
A0A0
ENDCHAR
STARTCHAR acircumflex
ENCODING 226
SWIDTH 414 0
DWIDTH 12 0
BBX 11 17 0 0
BITMAP
0400
0A00
1100
0000
0000
0A00
0B00
1500
1500
1680
2A80
2A80
2940
5F40
5120
5FA0
A0A0
ENDCHAR
STARTCHAR atilde
ENCODING 227
SWIDTH 414 0
DWIDTH 12 0
BBX 11 16 0 0
BITMAP
1C80
1300
0000
0000
0A00
0B00
1500
1500
1680
2A80
2A80
2940
5F40
5120
5FA0
A0A0
ENDCHAR
STARTCHAR adieresis
ENCODING 228
SWIDTH 414 0
DWIDTH 12 0
BBX 11 16 0 0
BITMAP
1900
1980
0000
0000
0A00
0B00
1500
1500
1680
2A80
2A80
2940
5F40
5120
5FA0
A0A0
ENDCHAR
STARTCHAR aring
ENCODING 229
SWIDTH 414 0
DWIDTH 12 0
BBX 11 16 0 0
BITMAP
0600
0900
0600
0000
0A00
0B00
1500
1500
1680
2A80
2A80
2940
5F40
5120
5FA0
A0A0
ENDCHAR
STARTCHAR ae
ENCODING 230
SWIDTH 593 0
DWIDTH 17 0
BBX 16 12 0 0
BITMAP
02FF
02C0
057F
0540
0B40
0B7E
1540
157E
2940
2FBF
50A0
F0BF
ENDCHAR
STARTCHAR ccedilla
ENCODING 231
SWIDTH 446 0
DWIDTH 12 0
BBX 11 17 1 -5
BITMAP
1F00
20C0
4F20
9080
A000
A000
A000
A000
9080
4F20
20C0
1F00
0400
0E00
0100
0100
1E00
ENDCHAR
STARTCHAR egrave
ENCODING 232
SWIDTH 363 0
DWIDTH 10 0
BBX 9 17 1 0
BITMAP
1000
1000
0800
0000
0000
BF80
A000
BF80
A000
A000
BF00
A000
BF00
A000
BF80
A000
BF80
ENDCHAR
STARTCHAR eacute
ENCODING 233
SWIDTH 363 0
DWIDTH 10 0
BBX 9 17 1 0
BITMAP
0200
0400
0400
0000
0000
BF80
A000
BF80
A000
A000
BF00
A000
BF00
A000
BF80
A000
BF80
ENDCHAR
STARTCHAR ecircumflex
ENCODING 234
SWIDTH 363 0
DWIDTH 10 0
BBX 9 17 1 0
BITMAP
0800
1400
2200
0000
0000
BF80
A000
BF80
A000
A000
BF00
A000
BF00
A000
BF80
A000
BF80
ENDCHAR
STARTCHAR edieresis
ENCODING 235
SWIDTH 363 0
DWIDTH 10 0
BBX 9 16 1 0
BITMAP
3200
3200
0000
0000
BF80
A000
BF80
A000
A000
BF00
A000
BF00
A000
BF80
A000
BF80
ENDCHAR
STARTCHAR igrave
ENCODING 236
SWIDTH 176 0
DWIDTH 5 0
BBX 4 17 0 0
BITMAP
C0
40
20
00
00
50
50
50
50
50
50
50
50
50
50
50
50
ENDCHAR
STARTCHAR iacute
ENCODING 237
SWIDTH 176 0
DWIDTH 5 0
BBX 4 17 1 0
BITMAP
10
20
60
00
00
A0
A0
A0
A0
A0
A0
A0
A0
A0
A0
A0
A0
ENDCHAR
STARTCHAR icircumflex
ENCODING 238
SWIDTH 176 0
DWIDTH 5 0
BBX 6 17 -1 0
BITMAP
30
28
C4
00
00
28
28
28
28
28
28
28
28
28
28
28
28
ENDCHAR
STARTCHAR idieresis
ENCODING 239
SWIDTH 176 0
DWIDTH 5 0
BBX 5 16 0 0
BITMAP
D8
D8
00
00
50
50
50
50
50
50
50
50
50
50
50
50
ENDCHAR
STARTCHAR eth
ENCODING 240
SWIDTH 455 0
DWIDTH 13 0
BBX 12 12 0 0
BITMAP
5F00
50C0
5F20
50A0
0050
0050
F850
0050
50A0
5F20
5040
5F80
ENDCHAR
STARTCHAR ntilde
ENCODING 241
SWIDTH 444 0
DWIDTH 12 0
BBX 10 16 1 0
BITMAP
1900
2700
0000
0000
A0C0
B0C0
B0C0
A8C0
B4C0
B6C0
AAC0
A540
A540
A2C0
A140
A140
ENDCHAR
STARTCHAR ograve
ENCODING 242
SWIDTH 494 0
DWIDTH 14 0
BBX 12 17 1 0
BITMAP
0800
0400
0400
0000
0000
1F00
20C0
4F20
90A0
A050
A050
A050
A050
90A0
4F20
20C0
1F00
ENDCHAR
STARTCHAR oacute
ENCODING 243
SWIDTH 494 0
DWIDTH 14 0
BBX 12 17 1 0
BITMAP
0100
0200
0600
0000
0000
1F00
20C0
4F20
90A0
A050
A050
A050
A050
90A0
4F20
20C0
1F00
ENDCHAR
STARTCHAR ocircumflex
ENCODING 244
SWIDTH 494 0
DWIDTH 14 0
BBX 12 17 1 0
BITMAP
0400
0A00
1100
0000
0000
1F00
20C0
4F20
90A0
A050
A050
A050
A050
90A0
4F20
20C0
1F00
ENDCHAR
STARTCHAR otilde
ENCODING 245
SWIDTH 494 0
DWIDTH 14 0
BBX 12 16 1 0
BITMAP
1C80
1380
0000
0000
1F00
20C0
4F20
90A0
A050
A050
A050
A050
90A0
4F20
20C0
1F00
ENDCHAR
STARTCHAR odieresis
ENCODING 246
SWIDTH 494 0
DWIDTH 14 0
BBX 12 16 1 0
BITMAP
1900
1980
0000
0000
1F00
20C0
4F20
90A0
A050
A050
A050
A050
90A0
4F20
20C0
1F00
ENDCHAR
STARTCHAR divide
ENCODING 247
SWIDTH 418 0
DWIDTH 12 0
BBX 10 10 1 0
BITMAP
0C00
0C00
0000
FFC0
0000
FFC0
0000
0C00
1400
0C00
ENDCHAR
STARTCHAR oslash
ENCODING 248
SWIDTH 494 0
DWIDTH 14 0
BBX 12 12 1 0
BITMAP
1FA0
2040
4E80
91A0
A150
A250
A450
A850
9090
2F20
6040
4F80
ENDCHAR
STARTCHAR ugrave
ENCODING 249
SWIDTH 400 0
DWIDTH 11 0
BBX 9 17 1 0
BITMAP
3000
1000
0800
0000
0000
A280
A280
A280
A280
A280
A280
A280
A280
A280
5C80
4100
3E00
ENDCHAR
STARTCHAR uacute
ENCODING 250
SWIDTH 400 0
DWIDTH 11 0
BBX 9 17 1 0
BITMAP
0200
0400
0800
0000
0000
A280
A280
A280
A280
A280
A280
A280
A280
A280
5C80
4100
3E00
ENDCHAR
STARTCHAR ucircumflex
ENCODING 251
SWIDTH 400 0
DWIDTH 11 0
BBX 9 17 1 0
BITMAP
1800
1400
2200
0000
0000
A280
A280
A280
A280
A280
A280
A280
A280
A280
5C80
4100
3E00
ENDCHAR
STARTCHAR udieresis
ENCODING 252
SWIDTH 400 0
DWIDTH 11 0
BBX 9 16 1 0
BITMAP
3600
3600
0000
0000
A280
A280
A280
A280
A280
A280
A280
A280
A280
5C80
4100
3E00
ENDCHAR
STARTCHAR yacute
ENCODING 253
SWIDTH 422 0
DWIDTH 12 0
BBX 12 17 0 0
BITMAP
0100
0200
0600
0000
0000
D0B0
5920
2940
3680
1480
0B00
0000
0A00
0A00
0A00
0A00
0A00
ENDCHAR
STARTCHAR thorn
ENCODING 254
SWIDTH 412 0
DWIDTH 12 0
BBX 10 12 1 0
BITMAP
A000
A000
BF00
A080
BE40
A140
A140
BE40
A080
BF00
A000
A000
ENDCHAR
STARTCHAR ydieresis
ENCODING 255
SWIDTH 422 0
DWIDTH 12 0
BBX 12 16 0 0
BITMAP
1900
1980
0000
0000
D0B0
5920
2940
3680
1480
0B00
0000
0A00
0A00
0A00
0A00
0A00
ENDCHAR
STARTCHAR Edotaccent
ENCODING 278
SWIDTH 677 0
DWIDTH 19 0
BBX 17 28 1 0
BITMAP
006000
006000
006000
000000
000000
ABFF80
ABFF80
A80000
ABFF80
A80000
A80000
A80000
A80000
A80000
ABFF00
A80000
ABFF00
A80000
ABFF00
A80000
A80000
A80000
A80000
ABFF80
A80000
ABFF80
A80000
ABFF80
ENDCHAR
STARTCHAR edotaccent
ENCODING 279
SWIDTH 363 0
DWIDTH 10 0
BBX 9 17 1 0
BITMAP
0C00
0C00
0C00
0000
0000
BF80
A000
BF80
A000
A000
BF00
A000
BF00
A000
BF80
A000
BF80
ENDCHAR
STARTCHAR dotlessi
ENCODING 305
SWIDTH 176 0
DWIDTH 5 0
BBX 3 12 1 0
BITMAP
A0
A0
A0
A0
A0
A0
A0
A0
A0
A0
A0
A0
ENDCHAR
STARTCHAR OE
ENCODING 338
SWIDTH 1221 0
DWIDTH 34 0
BBX 32 23 1 0
BITMAP
00FF57FF
07FF57FF
0F015000
147F57FF
29815000
52015000
54015000
A8015000
A8015000
A80157FE
B0015000
B00157FE
A8015000
A80157FE
A8015000
94015000
52015000
49815000
247F57FF
13015000
0CFF57FF
07015000
00FF57FF
ENDCHAR
STARTCHAR oe
ENCODING 339
SWIDTH 637 0
DWIDTH 18 0
BBX 16 12 1 0
BITMAP
1FBF
21C0
4FBF
B1C0
A1C0
A1BE
A1C0
A1BE
B1C0
4FBF
21C0
1FBF
ENDCHAR
STARTCHAR Wcircumflex
ENCODING 372
SWIDTH 972 0
DWIDTH 27 0
BBX 26 31 1 0
BITMAP
003C0000
006A0000
00510000
00A50000
01228000
03434000
00000000
00000000
F0170540
A82A0680
A82A0A80
A82A0A80
682C0A80
54550D00
54551500
54551500
34591500
2AAA9A00
2AAAAA00
2AAAAA00
1AB5AA00
15555400
15555400
15555400
0D62D400
0AA2A800
0AA2A800
0AA2A800
06816000
05415000
05415000
ENDCHAR
STARTCHAR wcircumflex
ENCODING 373
SWIDTH 521 0
DWIDTH 15 0
BBX 14 17 0 0
BITMAP
0300
0680
0CC0
0000
0000
A294
6294
5394
5598
5568
3568
2B68
2B68
2AB0
1AB0
14B0
14A0
ENDCHAR
STARTCHAR Ycircumflex
ENCODING 374
SWIDTH 769 0
DWIDTH 22 0
BBX 21 31 0 0
BITMAP
00D000
00A800
014400
025600
028A00
0D0500
000000
000000
D401A8
520150
2A0290
1502A0
148540
0A8B40
094A80
053500
02AD00
025200
015200
00A800
000400
00A800
00A800
00A800
00A800
00A800
00A800
00A800
00A800
00A800
00A800
ENDCHAR
STARTCHAR ycircumflex
ENCODING 375
SWIDTH 422 0
DWIDTH 12 0
BBX 12 17 0 0
BITMAP
0400
0A00
1100
0000
0000
D0B0
5920
2940
3680
1480
0B00
0000
0A00
0A00
0A00
0A00
0A00
ENDCHAR
STARTCHAR Ydieresis
ENCODING 376
SWIDTH 769 0
DWIDTH 22 0
BBX 21 31 0 0
BITMAP
038700
048880
084880
084880
048880
038700
000000
000000
D401A8
520150
2A0290
1502A0
148540
0A8B40
094A80
053500
02AD00
025200
015200
00A800
000400
00A800
00A800
00A800
00A800
00A800
00A800
00A800
00A800
00A800
00A800
ENDCHAR
STARTCHAR circumflex
ENCODING 710
SWIDTH 298 0
DWIDTH 8 0
BBX 6 3 1 14
BITMAP
30
28
CC
ENDCHAR
STARTCHAR dotaccent
ENCODING 729
SWIDTH 212 0
DWIDTH 6 0
BBX 2 3 2 14
BITMAP
C0
C0
C0
ENDCHAR
STARTCHAR ring
ENCODING 730
SWIDTH 212 0
DWIDTH 6 0
BBX 4 3 1 13
BITMAP
60
90
60
ENDCHAR
STARTCHAR tilde
ENCODING 732
SWIDTH 329 0
DWIDTH 9 0
BBX 7 2 1 14
BITMAP
72
8C
ENDCHAR
STARTCHAR gravecomb
ENCODING 768
SWIDTH 0 0
DWIDTH 0 0
BBX 3 3 1 14
BITMAP
C0
40
20
ENDCHAR
STARTCHAR acutecomb
ENCODING 769
SWIDTH 0 0
DWIDTH 0 0
BBX 3 3 1 14
BITMAP
20
40
C0
ENDCHAR
STARTCHAR uni0302
ENCODING 770
SWIDTH 0 0
DWIDTH 0 0
BBX 6 3 1 14
BITMAP
30
28
CC
ENDCHAR
STARTCHAR tildecomb
ENCODING 771
SWIDTH 0 0
DWIDTH 0 0
BBX 7 2 1 14
BITMAP
72
8C
ENDCHAR
STARTCHAR uni0307
ENCODING 775
SWIDTH 0 0
DWIDTH 0 0
BBX 2 3 2 14
BITMAP
C0
C0
C0
ENDCHAR
STARTCHAR uni0308
ENCODING 776
SWIDTH 0 0
DWIDTH 0 0
BBX 6 2 1 14
BITMAP
48
CC
ENDCHAR
STARTCHAR uni030A
ENCODING 778
SWIDTH 0 0
DWIDTH 0 0
BBX 4 3 1 13
BITMAP
60
90
60
ENDCHAR
STARTCHAR uni0327
ENCODING 807
SWIDTH 0 0
DWIDTH 0 0
BBX 5 5 1 -5
BITMAP
20
70
08
08
F0
ENDCHAR
STARTCHAR Wgrave
ENCODING 7808
SWIDTH 972 0
DWIDTH 27 0
BBX 26 31 1 0
BITMAP
00780000
00280000
00140000
00140000
000A0000
000D0000
00000000
00000000
F0170540
A82A0680
A82A0A80
A82A0A80
682C0A80
54550D00
54551500
54551500
34591500
2AAA9A00
2AAAAA00
2AAAAA00
1AB5AA00
15555400
15555400
15555400
0D62D400
0AA2A800
0AA2A800
0AA2A800
06816000
05415000
05415000
ENDCHAR
STARTCHAR wgrave
ENCODING 7809
SWIDTH 521 0
DWIDTH 15 0
BBX 14 17 0 0
BITMAP
0200
0100
0180
0000
0000
A294
6294
5394
5598
5568
3568
2B68
2B68
2AB0
1AB0
14B0
14A0
ENDCHAR
STARTCHAR Wacute
ENCODING 7810
SWIDTH 972 0
DWIDTH 27 0
BBX 26 31 1 0
BITMAP
000F0000
000A0000
00140000
00140000
00280000
00580000
00000000
00000000
F0170540
A82A0680
A82A0A80
A82A0A80
682C0A80
54550D00
54551500
54551500
34591500
2AAA9A00
2AAAAA00
2AAAAA00
1AB5AA00
15555400
15555400
15555400
0D62D400
0AA2A800
0AA2A800
0AA2A800
06816000
05415000
05415000
ENDCHAR
STARTCHAR wacute
ENCODING 7811
SWIDTH 521 0
DWIDTH 15 0
BBX 14 17 0 0
BITMAP
0180
0100
0200
0000
0000
A294
6294
5394
5598
5568
3568
2B68
2B68
2AB0
1AB0
14B0
14A0
ENDCHAR
STARTCHAR Wdieresis
ENCODING 7812
SWIDTH 972 0
DWIDTH 27 0
BBX 26 31 1 0
BITMAP
01C1C000
03222000
02122000
02122000
03222000
01C1C000
00000000
00000000
F0170540
A82A0680
A82A0A80
A82A0A80
682C0A80
54550D00
54551500
54551500
34591500
2AAA9A00
2AAAAA00
2AAAAA00
1AB5AA00
15555400
15555400
15555400
0D62D400
0AA2A800
0AA2A800
0AA2A800
06816000
05415000
05415000
ENDCHAR
STARTCHAR wdieresis
ENCODING 7813
SWIDTH 521 0
DWIDTH 15 0
BBX 14 16 0 0
BITMAP
04C0
06C0
0000
0000
A294
6294
5394
5598
5568
3568
2B68
2B68
2AB0
1AB0
14B0
14A0
ENDCHAR
STARTCHAR uni1E9E
ENCODING 7838
SWIDTH 784 0
DWIDTH 22 0
BBX 20 23 1 0
BITMAP
ABFFC0
ABFFC0
A80000
ABFFC0
A80000
A80A80
A81500
A81500
A82A00
A82A80
A85440
A895A0
A8AAA0
A80150
A80150
A80150
A80150
A80150
A8FE90
A801A0
A8FE40
A800C0
A8FF00
ENDCHAR
STARTCHAR Ygrave
ENCODING 7922
SWIDTH 769 0
DWIDTH 22 0
BBX 21 31 0 0
BITMAP
00A000
00A000
005000
004800
002800
001400
000000
000000
D401A8
520150
2A0290
1502A0
148540
0A8B40
094A80
053500
02AD00
025200
015200
00A800
000400
00A800
00A800
00A800
00A800
00A800
00A800
00A800
00A800
00A800
00A800
ENDCHAR
STARTCHAR ygrave
ENCODING 7923
SWIDTH 422 0
DWIDTH 12 0
BBX 12 17 0 0
BITMAP
0400
0400
0200
0000
0000
D0B0
5920
2940
3680
1480
0B00
0000
0A00
0A00
0A00
0A00
0A00
ENDCHAR
STARTCHAR endash
ENCODING 8211
SWIDTH 507 0
DWIDTH 14 0
BBX 12 3 1 4
BITMAP
FFF0
0000
FFF0
ENDCHAR
STARTCHAR emdash
ENCODING 8212
SWIDTH 552 0
DWIDTH 15 0
BBX 13 3 1 4
BITMAP
FFF8
0000
FFF8
ENDCHAR
STARTCHAR quoteleft
ENCODING 8216
SWIDTH 146 0
DWIDTH 4 0
BBX 2 4 1 8
BITMAP
80
80
C0
C0
ENDCHAR
STARTCHAR quoteright
ENCODING 8217
SWIDTH 146 0
DWIDTH 4 0
BBX 2 4 1 8
BITMAP
C0
C0
40
40
ENDCHAR
STARTCHAR quotesinglbase
ENCODING 8218
SWIDTH 146 0
DWIDTH 4 0
BBX 2 4 1 -4
BITMAP
C0
C0
40
40
ENDCHAR
STARTCHAR quotedblleft
ENCODING 8220
SWIDTH 297 0
DWIDTH 8 0
BBX 7 4 1 8
BITMAP
88
88
CA
CA
ENDCHAR
STARTCHAR quotedblright
ENCODING 8221
SWIDTH 297 0
DWIDTH 8 0
BBX 7 4 1 8
BITMAP
CA
CA
42
42
ENDCHAR
STARTCHAR quotedblbase
ENCODING 8222
SWIDTH 297 0
DWIDTH 8 0
BBX 7 4 1 -4
BITMAP
CA
CA
42
42
ENDCHAR
STARTCHAR bullet
ENCODING 8226
SWIDTH 302 0
DWIDTH 8 0
BBX 6 6 1 3
BITMAP
38
44
84
84
44
38
ENDCHAR
STARTCHAR ellipsis
ENCODING 8230
SWIDTH 528 0
DWIDTH 15 0
BBX 13 2 1 0
BITMAP
A528
A528
ENDCHAR
STARTCHAR guilsinglleft
ENCODING 8249
SWIDTH 178 0
DWIDTH 5 0
BBX 3 6 1 3
BITMAP
20
40
A0
A0
C0
20
ENDCHAR
STARTCHAR guilsinglright
ENCODING 8250
SWIDTH 178 0
DWIDTH 5 0
BBX 3 6 1 3
BITMAP
80
40
A0
A0
60
80
ENDCHAR
STARTCHAR fraction
ENCODING 8260
SWIDTH 362 0
DWIDTH 10 0
BBX 10 12 0 0
BITMAP
03C0
0280
0500
0500
0A00
0A00
1400
1400
2800
2800
5000
D000
ENDCHAR
STARTCHAR uni2074
ENCODING 8308
SWIDTH 204 0
DWIDTH 6 0
BBX 4 5 1 6
BITMAP
60
A0
F0
F0
F0
ENDCHAR
STARTCHAR Euro
ENCODING 8364
SWIDTH 462 0
DWIDTH 13 0
BBX 12 12 0 0
BITMAP
07C0
1820
2790
2860
FC00
0000
FC00
0000
2C60
1390
1820
07C0
ENDCHAR
STARTCHAR trademark
ENCODING 8482
SWIDTH 461 0
DWIDTH 13 0
BBX 12 5 0 6
BITMAP
FB30
22D0
2290
2210
2210
ENDCHAR
STARTCHAR minus
ENCODING 8722
SWIDTH 420 0
DWIDTH 12 0
BBX 10 3 1 4
BITMAP
FFC0
0000
FFC0
ENDCHAR
STARTCHAR uni2215
ENCODING 8725
SWIDTH 278 0
DWIDTH 8 0
BBX 7 12 1 0
BITMAP
0A
14
14
14
28
28
28
50
50
50
A0
A0
ENDCHAR
STARTCHAR .notdef
ENCODING -1
SWIDTH 500 0
DWIDTH 14 0
BBX 12 31 1 -6
BITMAP
FFF0
C030
C030
C030
C030
C030
C030
C030
C030
C030
C030
C030
C030
C030
C030
C030
C030
C030
C030
C030
C030
C030
C030
C030
C030
C030
C030
C030
C030
C030
FFF0
ENDCHAR
STARTCHAR NULL
ENCODING -1
SWIDTH 600 0
DWIDTH 17 0
BBX 1 1 0 0
BITMAP
00
ENDCHAR
STARTCHAR acutecomb.case
ENCODING -1
SWIDTH 0 0
DWIDTH 0 0
BBX 7 6 1 25
BITMAP
1A
14
24
28
50
D0
ENDCHAR
STARTCHAR ampersand.case
ENCODING -1
SWIDTH 797 0
DWIDTH 22 0
BBX 20 23 1 0
BITMAP
01F000
07EC00
0AFC00
152A00
151600
151600
156A00
149A00
12A400
0A5800
392000
6CA080
529160
A74B50
A92890
B8B5A0
A85240
A86A40
A7A500
587480
67CAC0
103D40
0FC7A0
ENDCHAR
STARTCHAR asciicircum.case
ENCODING -1
SWIDTH 540 0
DWIDTH 15 0
BBX 14 13 1 11
BITMAP
0200
0200
0500
0500
0A80
0A80
1540
1520
28A0
2890
5050
9028
A02C
ENDCHAR
STARTCHAR asciitilde.case
ENCODING -1
SWIDTH 640 0
DWIDTH 18 0
BBX 16 7 1 9
BITMAP
3E01
C183
3E7C
C183
3E7C
C183
807C
ENDCHAR
STARTCHAR asterisk.case
ENCODING -1
SWIDTH 482 0
DWIDTH 14 0
BBX 11 11 1 12
BITMAP
0A00
0A00
4A20
30C0
C020
20C0
1080
1180
2A40
1100
1100
ENDCHAR
STARTCHAR at.case
ENCODING -1
SWIDTH 915 0
DWIDTH 26 0
BBX 24 23 1 0
BITMAP
00FF00
037EC0
0D81B0
1E0068
1C0014
287E94
50BE8A
51428A
628286
A28285
A30285
A28285
A28285
A2428A
513E8A
508272
487D84
2C0078
160000
198180
0C7E40
0300C0
00FF00
ENDCHAR
STARTCHAR backslash.case
ENCODING -1
SWIDTH 504 0
DWIDTH 14 0
BBX 14 27 0 -2
BITMAP
A800
5400
5400
5400
2A00
2A00
2A00
1500
1500
1500
0A80
0A80
0A80
0540
0540
0540
02C0
02A0
02A0
01A0
0150
0150
00D0
00A8
00A8
00A8
0054
ENDCHAR
STARTCHAR bar.case
ENCODING -1
SWIDTH 262 0
DWIDTH 7 0
BBX 5 27 1 -2
BITMAP
A8
A8
A8
A8
A8
A8
A8
A8
A8
A8
A8
A8
A8
A8
A8
A8
A8
A8
A8
A8
A8
A8
A8
A8
A8
A8
A8
ENDCHAR
STARTCHAR braceleft.case
ENCODING -1
SWIDTH 504 0
DWIDTH 14 0
BBX 12 27 1 -2
BITMAP
0B70
0B00
0B70
0B00
0B70
0B00
0B00
0B00
0B00
0B00
0B00
EB00
0B00
EB00
0B00
EB00
0B00
0B00
0B00
0B00
0B00
0B00
0B70
0B00
0B70
0B00
0B70
ENDCHAR
STARTCHAR braceright.case
ENCODING -1
SWIDTH 506 0
DWIDTH 14 0
BBX 12 27 1 -2
BITMAP
EB00
0B00
EB00
0B00
EB00
0B00
0B00
0B00
0B00
0B00
0B00
0B70
0B00
0B70
0B00
0B70
0B00
0B00
0B00
0B00
0B00
0B00
EB00
0B00
EB00
0B00
EB00
ENDCHAR
STARTCHAR bracketleft.case
ENCODING -1
SWIDTH 453 0
DWIDTH 13 0
BBX 10 27 1 -2
BITMAP
ABC0
A800
ABC0
A800
ABC0
A800
A800
A800
A800
A800
A800
A800
A800
A800
A800
A800
A800
A800
A800
A800
A800
A800
ABC0
A800
ABC0
A800
ABC0
ENDCHAR
STARTCHAR bracketright.case
ENCODING -1
SWIDTH 453 0
DWIDTH 13 0
BBX 10 27 1 -2
BITMAP
FAC0
02C0
FAC0
02C0
FAC0
02C0
02C0
02C0
02C0
02C0
02C0
02C0
02C0
02C0
02C0
02C0
02C0
02C0
02C0
02C0
02C0
02C0
FAC0
02C0
FAC0
02C0
FAC0
ENDCHAR
STARTCHAR brokenbar.case
ENCODING -1
SWIDTH 262 0
DWIDTH 7 0
BBX 5 27 1 0
BITMAP
A8
A8
A8
A8
A8
A8
A8
A8
A8
A8
A8
A8
00
00
00
A8
A8
A8
A8
A8
A8
A8
A8
A8
A8
A8
A8
ENDCHAR
STARTCHAR bullet.case
ENCODING -1
SWIDTH 503 0
DWIDTH 14 0
BBX 12 12 1 6
BITMAP
0F00
30C0
6F20
50A0
A050
A050
A050
A050
50A0
6F20
30C0
0F00
ENDCHAR
STARTCHAR uni0327.case
ENCODING -1
SWIDTH 0 0
DWIDTH 0 0
BBX 7 7 1 -7
BITMAP
10
20
3C
44
02
C4
78
ENDCHAR
STARTCHAR cent.case
ENCODING -1
SWIDTH 577 0
DWIDTH 16 0
BBX 14 27 1 -2
BITMAP
0140
0140
0140
0140
0000
03E0
0C18
13E4
2C10
5BC8
5430
6800
A800
A800
A800
6800
5430
5BC8
2C10
13E4
0C18
03E0
0000
0140
0140
0140
0140
ENDCHAR
STARTCHAR uni0302.case
ENCODING -1
SWIDTH 0 0
DWIDTH 0 0
BBX 12 6 1 25
BITMAP
0D00
0A80
1440
2D40
68A0
D0D0
ENDCHAR
STARTCHAR colon.case
ENCODING -1
SWIDTH 262 0
DWIDTH 7 0
BBX 5 16 1 0
BITMAP
A8
A8
A8
A8
A8
00
00
00
00
00
00
A8
A8
A8
A8
A8
ENDCHAR
STARTCHAR comma.case
ENCODING -1
SWIDTH 338 0
DWIDTH 9 0
BBX 7 8 1 -3
BITMAP
2A
2A
2A
54
54
54
54
A8
ENDCHAR
STARTCHAR copyright.case
ENCODING -1
SWIDTH 895 0
DWIDTH 25 0
BBX 23 23 1 0
BITMAP
00FE00
03FF80
0F01E0
140050
280028
707C14
508314
A13D8A
A2420A
A2800A
A2800A
A2800A
A2800A
A2420A
A13D8A
908312
507C14
680024
240048
130190
0CFE60
0301C0
00FE00
ENDCHAR
STARTCHAR currency.case
ENCODING -1
SWIDTH 676 0
DWIDTH 19 0
BBX 17 17 1 2
BITMAP
100400
180C00
681B00
941480
4BC900
241200
09C800
0A2800
141800
141800
0A2800
29CA00
641300
D3C580
A41280
480900
300400
ENDCHAR
STARTCHAR degree.case
ENCODING -1
SWIDTH 413 0
DWIDTH 12 0
BBX 10 10 1 13
BITMAP
1E00
6100
9C80
A240
A140
A140
A240
DC80
6100
1E00
ENDCHAR
STARTCHAR uni0308.case
ENCODING -1
SWIDTH 0 0
DWIDTH 0 0
BBX 13 6 1 25
BITMAP
3870
4C88
8488
8488
4C88
3870
ENDCHAR
STARTCHAR divide.case
ENCODING -1
SWIDTH 618 0
DWIDTH 17 0
BBX 15 15 1 4
BITMAP
0180
0240
0240
0180
0000
FFFE
0000
FFFE
0000
FFFE
0000
0180
0240
0240
0180
ENDCHAR
STARTCHAR uni2215.case
ENCODING -1
SWIDTH 483 0
DWIDTH 14 0
BBX 13 23 0 0
BITMAP
00A8
0150
0150
0150
02A0
02A0
02A0
0540
0540
0540
0A80
0A80
0A80
1500
1500
1500
2A00
2A00
2A00
5400
5400
5400
A800
ENDCHAR
STARTCHAR dollar.case
ENCODING -1
SWIDTH 660 0
DWIDTH 18 0
BBX 17 27 1 -2
BITMAP
014000
014000
055000
194C00
256600
595A00
B56500
A95500
A94E00
A94000
A60000
59C000
663800
11C400
0E3200
01CD00
023500
014A80
114A80
A95A80
A57500
594900
655200
114C00
0D5000
014000
014000
ENDCHAR
STARTCHAR eight.case
ENCODING -1
SWIDTH 561 0
DWIDTH 16 0
BBX 14 23 1 0
BITMAP
0FC0
37A0
5850
67A8
A8D4
A854
B054
A854
AC54
93B8
4E60
3190
4E68
A9A8
A854
B054
A854
A8D4
A7A8
5848
6790
3020
0FC0
ENDCHAR
STARTCHAR ellipsis.case
ENCODING -1
SWIDTH 766 0
DWIDTH 21 0
BBX 19 5 1 0
BITMAP
A952A0
A952A0
A952A0
A952A0
A952A0
ENDCHAR
STARTCHAR emdash.case
ENCODING -1
SWIDTH 790 0
DWIDTH 22 0
BBX 20 5 1 9
BITMAP
FFFFF0
000000
FFFFF0
000000
FFFFF0
ENDCHAR
STARTCHAR endash.case
ENCODING -1
SWIDTH 721 0
DWIDTH 20 0
BBX 18 5 1 9
BITMAP
FFFFC0
000000
FFFFC0
000000
FFFFC0
ENDCHAR
STARTCHAR equal.case
ENCODING -1
SWIDTH 618 0
DWIDTH 17 0
BBX 15 13 1 5
BITMAP
FFFE
0000
FFFE
0000
FFFE
0000
0000
0000
FFFE
0000
FFFE
0000
FFFE
ENDCHAR
STARTCHAR Euro.case
ENCODING -1
SWIDTH 767 0
DWIDTH 21 0
BBX 21 23 0 0
BITMAP
007F80
01BF60
02C0D8
051F20
0A60A0
0E8040
150000
000000
FFFC00
000000
000000
FFFC00
FFFC00
000000
150000
150000
0A8040
0B61A0
059E20
0240D8
013F30
00C0C0
003F00
ENDCHAR
STARTCHAR exclam.case
ENCODING -1
SWIDTH 262 0
DWIDTH 7 0
BBX 5 23 1 0
BITMAP
A8
A8
A8
A8
A8
A8
A8
A8
A8
A8
A8
A8
A8
A8
A8
A8
00
00
A8
A8
A8
A8
A8
ENDCHAR
STARTCHAR exclamdown.case
ENCODING -1
SWIDTH 262 0
DWIDTH 7 0
BBX 5 23 1 -6
BITMAP
A8
A8
A8
A8
A8
00
00
A8
A8
A8
A8
A8
A8
A8
A8
A8
A8
A8
A8
A8
A8
A8
A8
ENDCHAR
STARTCHAR five.case
ENCODING -1
SWIDTH 558 0
DWIDTH 16 0
BBX 14 23 1 0
BITMAP
FFF8
FFF8
0000
FFF8
0000
A800
A800
A800
AB80
A860
A810
AB88
ABE8
A8E4
0054
0054
A854
A8D4
A7A8
5868
6F90
3020
0F80
ENDCHAR
STARTCHAR four.case
ENCODING -1
SWIDTH 585 0
DWIDTH 16 0
BBX 15 23 1 0
BITMAP
02F0
02A0
0540
0540
0A80
0A80
1500
1500
2A00
2A00
5400
5550
A950
0150
FD56
0150
FD56
0150
FD56
0150
0150
0150
0150
ENDCHAR
STARTCHAR uni2074.case
ENCODING -1
SWIDTH 312 0
DWIDTH 9 0
BBX 7 10 1 13
BITMAP
3C
28
50
50
A0
0A
EA
0A
EA
0A
ENDCHAR
STARTCHAR fraction.case
ENCODING -1
SWIDTH 655 0
DWIDTH 18 0
BBX 16 23 1 0
BITMAP
0005
000A
000A
0014
0024
0028
0050
0050
00A0
00A0
0140
0140
0280
0280
0500
0900
0A00
1400
1400
2800
2800
5000
F000
ENDCHAR
STARTCHAR gravecomb.case
ENCODING -1
SWIDTH 0 0
DWIDTH 0 0
BBX 7 6 1 25
BITMAP
D0
50
28
24
14
1A
ENDCHAR
STARTCHAR greater.case
ENCODING -1
SWIDTH 677 0
DWIDTH 19 0
BBX 17 19 1 2
BITMAP
C00000
200000
980000
660000
998000
664000
193000
04CC00
033200
00CD80
033200
0C8800
336000
CC8000
B30000
4C0000
900000
600000
800000
ENDCHAR
STARTCHAR guillemotleft.case
ENCODING -1
SWIDTH 666 0
DWIDTH 19 0
BBX 16 15 1 4
BITMAP
0201
0601
0C06
1209
6C32
9A4D
4C23
B058
C824
241B
DA2D
2412
120D
0C06
0201
ENDCHAR
STARTCHAR guillemotright.case
ENCODING -1
SWIDTH 666 0
DWIDTH 19 0
BBX 16 15 1 4
BITMAP
8040
4020
2018
D82C
6412
9A4D
6633
0A05
3209
4C36
9249
6C12
982C
2010
C020
ENDCHAR
STARTCHAR guilsinglleft.case
ENCODING -1
SWIDTH 338 0
DWIDTH 9 0
BBX 7 15 1 4
BITMAP
02
06
0C
12
6C
9A
4C
B0
C8
24
DA
24
12
0C
02
ENDCHAR
STARTCHAR guilsinglright.case
ENCODING -1
SWIDTH 338 0
DWIDTH 9 0
BBX 7 15 1 4
BITMAP
80
40
20
D8
64
9A
66
0A
32
4C
92
6C
98
20
C0
ENDCHAR
STARTCHAR hyphen.case
ENCODING -1
SWIDTH 445 0
DWIDTH 12 0
BBX 10 5 1 9
BITMAP
FFC0
0000
FFC0
0000
FFC0
ENDCHAR
STARTCHAR less.case
ENCODING -1
SWIDTH 677 0
DWIDTH 19 0
BBX 17 19 1 2
BITMAP
000080
000300
000480
001900
006680
019980
026600
089800
266000
998000
666000
199000
064C00
013300
00CC80
003200
000D80
000200
000180
ENDCHAR
STARTCHAR logicalnot.case
ENCODING -1
SWIDTH 618 0
DWIDTH 17 0
BBX 15 11 1 3
BITMAP
FFFE
0000
FFFE
0000
FFFE
0000
002A
002A
002A
002A
002A
ENDCHAR
STARTCHAR uni00B5.case
ENCODING -1
SWIDTH 792 0
DWIDTH 22 0
BBX 21 29 1 -6
BITMAP
A80680
A80680
A80680
A80680
A80680
A80680
A80680
A80680
A80680
A80680
A80680
A80680
A80680
A80680
A80680
A80A80
A80A80
AA12A0
A9E518
AA0940
ABF2B8
AC0CC0
ABF038
A80000
A80000
A80000
A80000
A80000
A80000
ENDCHAR
STARTCHAR minus.case
ENCODING -1
SWIDTH 618 0
DWIDTH 17 0
BBX 15 5 1 9
BITMAP
FFFE
0000
FFFE
0000
FFFE
ENDCHAR
STARTCHAR multiply.case
ENCODING -1
SWIDTH 580 0
DWIDTH 16 0
BBX 14 14 1 4
BITMAP
1010
0828
3450
DAA4
6948
3290
0520
0A40
1490
2968
D2B4
24D8
0860
1020
ENDCHAR
STARTCHAR nine.case
ENCODING -1
SWIDTH 558 0
DWIDTH 16 0
BBX 14 23 1 0
BITMAP
0FC0
3020
6790
5848
A7A8
A8D4
A854
B054
A854
A854
9754
4F54
6054
3054
0F54
0054
0054
B054
A8D8
A7A8
5050
37A0
0FC0
ENDCHAR
STARTCHAR numbersign.case
ENCODING -1
SWIDTH 776 0
DWIDTH 22 0
BBX 19 23 1 0
BITMAP
054540
058540
068540
0A8580
2ABFE0
0A8000
2ABFE0
0A8000
2B7FE0
0D0000
150D00
001500
FFD540
001500
FFD540
001500
FFD6C0
001A00
2A2A00
2A2A00
2A2A00
2A2A00
2C2A00
ENDCHAR
STARTCHAR one.case
ENCODING -1
SWIDTH 378 0
DWIDTH 11 0
BBX 9 23 0 0
BITMAP
F680
F680
0680
F680
0680
0680
0680
0680
0680
0680
0680
0680
0680
0680
0680
0680
0680
0680
0680
0680
0680
0680
0680
ENDCHAR
STARTCHAR onehalf.case
ENCODING -1
SWIDTH 735 0
DWIDTH 21 0
BBX 18 24 1 -1
BITMAP
D40280
140500
D40500
140A00
140A00
141400
142400
142800
145000
145000
00A000
00A000
014000
014780
028840
028B40
050D40
090140
0A02C0
140D80
140000
281FC0
280000
001FC0
ENDCHAR
STARTCHAR onequarter.case
ENCODING -1
SWIDTH 722 0
DWIDTH 20 0
BBX 18 23 1 0
BITMAP
D40280
140500
D40500
140A00
140A00
141400
142400
142800
145000
145000
00A000
00A000
014000
014580
028500
028A00
050A00
091400
0A0140
141D40
140140
281D40
280140
ENDCHAR
STARTCHAR uni00B9.case
ENCODING -1
SWIDTH 306 0
DWIDTH 9 0
BBX 6 10 1 13
BITMAP
D4
14
D4
14
14
14
14
14
14
14
ENDCHAR
STARTCHAR ordfeminine.case
ENCODING -1
SWIDTH 456 0
DWIDTH 13 0
BBX 10 10 1 13
BITMAP
0A00
1600
1500
1500
2B00
2A80
2E80
5180
5F40
F1C0
ENDCHAR
STARTCHAR ordmasculine.case
ENCODING -1
SWIDTH 489 0
DWIDTH 14 0
BBX 11 11 1 12
BITMAP
0F00
30C0
4F40
50A0
A0A0
A060
A0A0
50A0
4F40
30C0
0F00
ENDCHAR
STARTCHAR paragraph.case
ENCODING -1
SWIDTH 893 0
DWIDTH 25 0
BBX 23 23 1 0
BITMAP
0FFFFE
3FFFFE
500000
A7FFFE
A80000
D00A8A
D00A8A
A80A8A
A7EA8A
900A8A
4FEA8A
300A8A
0FEA8A
000A8A
000A8A
000A8A
000A8A
000A8A
000A8A
000A8A
000A8A
000A8A
000A8A
ENDCHAR
STARTCHAR parenleft.case
ENCODING -1
SWIDTH 290 0
DWIDTH 8 0
BBX 8 27 1 -2
BITMAP
15
2A
2A
34
54
54
58
A8
A8
A8
A8
A8
B0
B0
B0
A8
A8
A8
A8
A8
58
54
54
34
2A
2A
15
ENDCHAR
STARTCHAR parenright.case
ENCODING -1
SWIDTH 290 0
DWIDTH 8 0
BBX 8 27 -1 -2
BITMAP
E8
54
54
2C
2A
2A
16
15
15
15
15
0D
0D
0B
0D
0D
15
15
15
15
16
2A
2A
2C
54
54
E8
ENDCHAR
STARTCHAR percent.case
ENCODING -1
SWIDTH 827 0
DWIDTH 23 0
BBX 21 23 1 0
BITMAP
3E00A8
5D8150
A28350
A142A0
A145A0
A24540
9C8A80
611280
1E1500
002A00
002E00
015000
029000
04A3C0
054430
0B49C8
0A8A28
159428
251428
2A0A28
5209C8
540410
A803E0
ENDCHAR
STARTCHAR period.case
ENCODING -1
SWIDTH 262 0
DWIDTH 7 0
BBX 5 5 1 0
BITMAP
A8
A8
A8
A8
A8
ENDCHAR
STARTCHAR periodcentered.case
ENCODING -1
SWIDTH 262 0
DWIDTH 7 0
BBX 5 5 1 9
BITMAP
A8
A8
A8
A8
A8
ENDCHAR
STARTCHAR plus.case
ENCODING -1
SWIDTH 616 0
DWIDTH 17 0
BBX 15 15 1 4
BITMAP
0540
0540
0540
0540
0540
F55E
0540
F55E
0540
F55E
0540
0540
0540
0540
0540
ENDCHAR
STARTCHAR plusminus.case
ENCODING -1
SWIDTH 618 0
DWIDTH 17 0
BBX 15 21 1 0
BITMAP
0540
0540
0540
0540
0540
F55E
0540
F55E
0540
F55E
0540
0540
0540
0540
0540
0000
FFFE
0000
FFFE
0000
FFFE
ENDCHAR
STARTCHAR question.case
ENCODING -1
SWIDTH 598 0
DWIDTH 17 0
BBX 14 23 1 0
BITMAP
0FC0
17F0
2828
5394
6454
A82C
002C
0054
00D4
01A4
0248
0290
0520
0540
0540
0540
0000
0000
0540
0540
0540
0540
0540
ENDCHAR
STARTCHAR questiondown.case
ENCODING -1
SWIDTH 598 0
DWIDTH 17 0
BBX 14 23 1 -6
BITMAP
0540
0540
0540
0540
0540
0000
0000
0540
0540
0540
0A80
3280
2500
5B00
5400
A800
A808
A834
6454
5394
2828
17F0
0FC0
ENDCHAR
STARTCHAR quotedbl.case
ENCODING -1
SWIDTH 464 0
DWIDTH 13 0
BBX 11 8 1 15
BITMAP
D160
D160
D160
D160
D160
D160
D160
D160
ENDCHAR
STARTCHAR quotedblbase.case
ENCODING -1
SWIDTH 464 0
DWIDTH 13 0
BBX 11 8 1 -3
BITMAP
D160
D160
D160
D160
D160
5060
5060
5060
ENDCHAR
STARTCHAR quotedblleft.case
ENCODING -1
SWIDTH 464 0
DWIDTH 13 0
BBX 11 8 1 15
BITMAP
C140
C140
C140
D160
D160
D160
D160
D160
ENDCHAR
STARTCHAR quotedblright.case
ENCODING -1
SWIDTH 464 0
DWIDTH 13 0
BBX 11 8 1 15
BITMAP
D160
D160
D160
D160
D160
5060
5060
5060
ENDCHAR
STARTCHAR quoteleft.case
ENCODING -1
SWIDTH 212 0
DWIDTH 6 0
BBX 4 8 1 15
BITMAP
C0
C0
C0
D0
D0
D0
D0
D0
ENDCHAR
STARTCHAR quoteright.case
ENCODING -1
SWIDTH 212 0
DWIDTH 6 0
BBX 4 8 1 15
BITMAP
D0
D0
D0
D0
D0
50
50
50
ENDCHAR
STARTCHAR quotesinglbase.case
ENCODING -1
SWIDTH 212 0
DWIDTH 6 0
BBX 4 8 1 -3
BITMAP
D0
D0
D0
D0
D0
50
50
50
ENDCHAR
STARTCHAR quotesingle.case
ENCODING -1
SWIDTH 212 0
DWIDTH 6 0
BBX 4 8 1 15
BITMAP
D0
D0
D0
D0
D0
D0
D0
D0
ENDCHAR
STARTCHAR registered.case
ENCODING -1
SWIDTH 895 0
DWIDTH 25 0
BBX 23 23 1 0
BITMAP
00FE00
03FF80
0F01E0
140050
280028
717E14
514114
A17C8A
A1428A
A17C8A
A1410A
A17E0A
A14A0A
A14A0A
A1450A
914512
514294
680024
240048
130190
0CFE60
0301C0
00FE00
ENDCHAR
STARTCHAR uni030A.case
ENCODING -1
SWIDTH 0 0
DWIDTH 0 0
BBX 6 6 1 25
BITMAP
38
44
84
84
44
38
ENDCHAR
STARTCHAR section.case
ENCODING -1
SWIDTH 645 0
DWIDTH 18 0
BBX 16 30 1 -4
BITMAP
07F0
180C
3006
27F1
4BED
541C
5400
5300
28F0
3608
19C4
37B2
2C6A
5316
5415
6826
68CA
5614
59E4
2618
19E4
0E12
01EA
0036
3816
A7EA
981A
67E4
3818
07E0
ENDCHAR
STARTCHAR semicolon.case
ENCODING -1
SWIDTH 338 0
DWIDTH 9 0
BBX 7 19 1 -3
BITMAP
2A
2A
2A
2A
2A
00
00
00
00
00
00
2A
2A
2A
54
54
54
54
A8
ENDCHAR
STARTCHAR seven.case
ENCODING -1
SWIDTH 505 0
DWIDTH 14 0
BBX 12 23 1 0
BITMAP
FFF0
FFF0
0000
FFF0
0000
0150
0160
02A0
02A0
02A0
0340
0540
0540
0540
0A80
0A80
0A80
0B00
1500
1500
1500
1600
2A00
ENDCHAR
STARTCHAR six.case
ENCODING -1
SWIDTH 558 0
DWIDTH 16 0
BBX 14 23 1 0
BITMAP
0FC0
37B0
5878
67A8
A854
A854
B000
B000
B780
B060
B010
B788
B7E8
B0E4
B054
B054
A854
A8D4
A7A8
5868
4790
3020
0F80
ENDCHAR
STARTCHAR slash.case
ENCODING -1
SWIDTH 504 0
DWIDTH 14 0
BBX 14 27 0 -2
BITMAP
0054
00A8
00A8
00A8
00D0
0150
0150
01A0
02A0
02A0
02C0
0540
0540
0540
0A80
0A80
0A80
1500
1500
1500
2A00
2A00
2A00
5400
5400
5400
A800
ENDCHAR
STARTCHAR uni00AD.case
ENCODING -1
SWIDTH 445 0
DWIDTH 12 0
BBX 10 5 1 9
BITMAP
FFC0
0000
FFC0
0000
FFC0
ENDCHAR
STARTCHAR sterling.case
ENCODING -1
SWIDTH 618 0
DWIDTH 17 0
BBX 16 23 0 0
BITMAP
07F0
0BEC
3C1A
2BE5
5415
540A
5400
3A00
0000
7FF0
0000
7FF0
0000
7FF0
0000
3500
7A00
0000
FFFF
0000
FFFF
0000
FFFF
ENDCHAR
STARTCHAR three.case
ENCODING -1
SWIDTH 558 0
DWIDTH 16 0
BBX 14 23 1 0
BITMAP
0FC0
37B0
5878
A7A8
A854
B054
0054
0054
0188
0068
0010
0188
01E8
00E4
0054
B054
A854
A8D4
A7A8
5868
6790
3020
0F80
ENDCHAR
STARTCHAR threequarters.case
ENCODING -1
SWIDTH 722 0
DWIDTH 20 0
BBX 18 23 1 0
BITMAP
3C0280
440500
BA0500
0A0A00
080A00
041400
0A2400
AA2800
9A5000
445000
38A000
00A000
014000
014580
028500
028A00
050A00
091400
0A0140
141D40
140140
281D40
280140
ENDCHAR
STARTCHAR uni00B3.case
ENCODING -1
SWIDTH 332 0
DWIDTH 9 0
BBX 7 11 1 12
BITMAP
3C
44
BA
0A
08
04
0A
AA
9A
44
38
ENDCHAR
STARTCHAR tildecomb.case
ENCODING -1
SWIDTH 0 0
DWIDTH 0 0
BBX 11 4 1 25
BITMAP
3820
4420
8260
81C0
ENDCHAR
STARTCHAR trademark.case
ENCODING -1
SWIDTH 850 0
DWIDTH 24 0
BBX 23 12 0 11
BITMAP
FF940A
00161A
FF962A
14156A
1416DA
14166A
14156A
14148A
14148A
14140A
14140A
14140A
ENDCHAR
STARTCHAR two.case
ENCODING -1
SWIDTH 558 0
DWIDTH 16 0
BBX 14 23 1 0
BITMAP
0FC0
37A0
5850
E7A8
A8D8
A854
0054
0054
0094
01A8
0148
0290
0520
0B40
1280
2500
5A00
0000
FFF8
0000
FFF8
0000
FFF8
ENDCHAR
STARTCHAR uni00B2.case
ENCODING -1
SWIDTH 339 0
DWIDTH 9 0
BBX 7 11 1 12
BITMAP
3C
42
5A
AA
0A
14
6C
00
FE
00
FE
ENDCHAR
STARTCHAR underscore.case
ENCODING -1
SWIDTH 667 0
DWIDTH 19 0
BBX 16 5 1 0
BITMAP
FFFF
0000
FFFF
0000
FFFF
ENDCHAR
STARTCHAR yen.case
ENCODING -1
SWIDTH 769 0
DWIDTH 22 0
BBX 21 23 0 0
BITMAP
D401A8
5A0150
2A0290
1502A0
148540
0A8B40
054A80
053500
02AD00
025200
014A00
00AC00
000000
00A800
0FAB80
00A800
0FAB80
00A800
0FAB80
00A800
00A800
00A800
00A800
ENDCHAR
STARTCHAR zero.case
ENCODING -1
SWIDTH 558 0
DWIDTH 16 0
BBX 14 23 1 0
BITMAP
0FC0
37A0
5850
67A8
A8D8
A854
B054
B054
B054
B054
B054
B054
B054
B054
B054
B054
A854
A8D4
A7A8
5848
4790
3020
0FC0
ENDCHAR
ENDFONT
